<svg width="71" height="26" viewBox="0 0 71 26" fill="none" xmlns="http://www.w3.org/2000/svg">
<g clip-path="url(#clip0_15_150)">
<mask id="mask0_15_150" style="mask-type:luminance" maskUnits="userSpaceOnUse" x="48" y="5" width="23" height="17">
<path d="M48 5H71.0001V22H48V5Z" fill="white"/>
</mask>
<g mask="url(#mask0_15_150)">
<path fill-rule="evenodd" clip-rule="evenodd" d="M46.5625 5H72.4375V22H46.5625V5Z" fill="#199D00"/>
<path fill-rule="evenodd" clip-rule="evenodd" d="M53.0831 9.8188C53.0532 10.2159 53.0174 10.9149 53.3598 10.9866C53.774 11.0258 53.5456 10.2957 53.6955 10.1634C53.7238 10.0979 53.7761 10.0976 53.7804 10.1801V10.7994C53.7766 11.0008 53.9109 11.0601 54.0153 11.1017C54.1239 11.0934 54.1964 11.097 54.239 11.2011L54.2899 12.2723C54.2899 12.2723 54.5418 12.3433 54.5538 11.6698C54.5658 11.2743 54.4736 10.9433 54.5277 10.8663C54.5295 10.7907 54.6275 10.7862 54.6954 10.8231C54.8037 10.8983 54.8519 10.9912 55.0202 10.9541C55.2762 10.8846 55.4301 10.7618 55.4339 10.5681C55.4189 10.384 55.3979 10.1999 55.317 10.0158C55.3283 9.9823 55.2676 9.89557 55.2788 9.86207C55.3249 9.93309 55.3949 9.92718 55.4108 9.86207C55.3672 9.72059 55.2996 9.58502 55.19 9.52632C55.0994 9.44769 54.9669 9.46376 54.9183 9.62779C54.8958 9.81678 54.9874 10.0413 55.1271 10.2244C55.1567 10.2959 55.1984 10.4147 55.1801 10.5217C55.1058 10.5636 55.0315 10.5461 54.9692 10.4813C54.9692 10.4813 54.7655 10.3307 54.7655 10.2973C54.8195 9.95607 54.7774 9.91738 54.7475 9.82269C54.7265 9.69197 54.6636 9.65007 54.6126 9.56078C54.5617 9.50753 54.4927 9.50753 54.4597 9.56078C54.3696 9.71468 54.4117 10.045 54.4767 10.193C54.5238 10.329 54.5956 10.4144 54.5616 10.4144C54.5337 10.4913 54.4759 10.4736 54.4339 10.3848C54.3738 10.2014 54.3618 9.92764 54.3618 9.80443C54.3438 9.65159 54.324 9.32564 54.2219 9.24283C54.1597 9.15929 54.0674 9.20003 54.0352 9.2763C54.0285 9.42797 54.0277 9.57961 54.0451 9.71939C54.1151 9.96453 54.1371 10.1801 54.171 10.4312C54.1805 10.7675 53.9737 10.5771 53.9832 10.4104C54.0308 10.1938 54.0185 9.85294 53.9761 9.76654C53.9425 9.68015 53.9029 9.65883 53.8212 9.67304C53.7564 9.66916 53.5895 9.84872 53.5426 10.1466C53.5426 10.1466 53.5027 10.2999 53.4857 10.4361C53.4627 10.5899 53.36 10.6985 53.2879 10.4144C53.2256 10.208 53.1874 9.69974 53.083 9.81877L53.0831 9.8188Z" fill="white"/>
<path fill-rule="evenodd" clip-rule="evenodd" d="M54.2086 11.4483C53.8431 11.6244 53.4896 11.7886 53.1301 11.9588C53.1433 11.7179 53.6429 11.283 53.9836 11.2769C54.2053 11.283 54.1496 11.3615 54.2086 11.4483Z" fill="white"/>
<path fill-rule="evenodd" clip-rule="evenodd" d="M54.0202 11.7814C53.4518 13.2253 55.3512 13.4264 55.5635 11.8405C55.5834 11.7754 55.6635 11.7103 55.6775 11.8168C55.6335 13.2528 54.2084 13.3515 53.9662 12.8997C53.9062 12.7932 53.8881 12.5565 53.8822 12.4145C53.8461 12.1324 53.696 12.2409 53.672 12.521C53.648 12.6768 53.654 12.7203 53.654 12.8702C53.73 14.0043 55.5655 13.5172 55.8637 12.5802C56.0218 12.0614 55.8377 11.6788 55.9237 11.6807C56.1059 11.874 56.36 11.7064 56.4161 11.6393C56.4401 11.6057 56.5002 11.5841 56.5422 11.6275C56.6843 11.7281 56.9346 11.6807 56.9866 11.5032C57.0166 11.3296 57.0407 11.1501 57.0466 10.9647C56.9305 11.0003 56.8445 11.0239 56.8365 11.0712L56.8125 11.2251C56.8025 11.2744 56.7023 11.2763 56.6984 11.2132C56.6543 11.016 56.4722 10.9903 56.3621 11.2961C56.288 11.3553 56.154 11.3671 56.1399 11.2784C56.1579 11.0732 56.0738 11.0456 55.9058 11.1422C55.8517 10.7359 55.7977 10.3473 55.7436 9.94097C55.8137 9.93898 55.8778 9.99025 55.9418 9.91136C55.8717 9.6964 55.7236 9.25649 55.6415 9.22492C55.6015 9.1776 55.5674 9.20719 55.5154 9.21901C55.4274 9.24663 55.3453 9.3216 55.3713 9.46756C55.4754 10.0909 55.5434 10.5663 55.6475 11.1896C55.6635 11.2626 55.6015 11.3591 55.5214 11.3493C55.3853 11.2586 55.3514 11.0752 55.1192 11.083C54.951 11.085 54.7588 11.2645 54.7348 11.4381C54.7068 11.5761 54.6968 11.726 54.7348 11.8464C54.8529 11.9864 54.995 11.9727 55.1191 11.9411C55.2212 11.8997 55.3052 11.7991 55.3413 11.8227C55.3653 11.8523 55.3473 12.1836 54.8609 12.4381C54.5667 12.5683 54.3325 12.598 54.2064 12.3612C54.1284 12.2133 54.2124 11.6511 54.0202 11.7813V11.7814Z" fill="white"/>
<path fill-rule="evenodd" clip-rule="evenodd" d="M56.4311 10.3134C56.5451 10.2719 57.0856 9.66247 57.0856 9.66247C57.0576 9.6388 57.0325 9.62104 57.0045 9.59736C56.9745 9.57173 56.9775 9.5461 57.0045 9.52043C57.1386 9.44353 57.0956 9.27486 57.0255 9.19796C56.9094 9.14663 56.8084 9.16343 56.7343 9.20088C56.6402 9.28967 56.6182 9.43164 56.6923 9.52043C56.7644 9.55397 56.8364 9.62598 56.7883 9.66543C56.5672 9.89818 55.9617 10.2996 56.0318 10.3134C56.0468 10.3331 56.4191 10.3321 56.4311 10.3134ZM53.1672 12.4706C52.9645 12.7888 52.9469 13.2642 53.0587 13.406C53.1182 13.473 53.2158 13.5023 53.288 13.4813C53.4154 13.4269 53.4711 13.1726 53.4409 13.0796C53.3984 13.014 53.3649 13.0036 53.3225 13.0594C53.2329 13.2387 53.1957 13.1157 53.1878 13.0155C53.1741 12.8255 53.1922 12.6505 53.2132 12.5119C53.2355 12.3698 53.2128 12.4133 53.1672 12.4706ZM61.8288 11.9609C61.6328 11.5452 61.3615 11.1344 61.2751 10.9766C61.1888 10.8187 60.5371 9.88659 60.4412 9.78177C60.2295 9.53384 60.785 9.88503 60.3709 9.39276C60.213 9.25929 60.2039 9.25115 60.0729 9.14225C60.0068 9.09603 59.8454 9.01159 59.8168 9.15154C59.8024 9.27496 59.8102 9.34186 59.8312 9.44463C59.8474 9.51313 59.9486 9.62784 59.9984 9.69431C60.6596 10.5702 61.2459 11.4547 61.8113 12.5669C61.9005 12.525 61.881 12.0305 61.8288 11.9609H61.8288Z" fill="white"/>
<path fill-rule="evenodd" clip-rule="evenodd" d="M60.9686 13.3518C60.93 13.3944 61.0637 13.5768 61.2374 13.5766C61.528 13.5434 61.7837 13.3825 62.0206 12.9592C62.0839 12.8604 62.1952 12.6493 62.1985 12.4855C62.2206 11.5251 62.1497 10.7777 62.0037 10.0835C61.9943 10.0159 62 9.93646 62.0116 9.91621C62.0305 9.89406 62.0942 9.91631 62.1281 9.86162C62.1778 9.81165 61.9962 9.39777 61.8927 9.23836C61.856 9.16718 61.8432 9.11963 61.7824 9.24673C61.7184 9.34999 61.6754 9.53022 61.6804 9.69863C61.8191 10.6444 61.8616 11.4716 61.9522 12.4174C61.9596 12.5088 61.9459 12.6417 61.8842 12.6947C61.6561 12.9295 61.3267 13.2186 60.9686 13.3518ZM64.8933 13.3468C64.6848 13.4656 64.6845 13.6022 64.8531 13.6072C65.1437 13.5739 65.487 13.5502 65.7237 13.1978C65.7871 13.0991 65.8624 12.8321 65.8656 12.6683C65.8878 11.7079 65.8529 10.991 65.7069 10.2969C65.6975 10.2293 65.6672 10.0737 65.6788 10.0534C65.6976 10.0058 65.7923 10.0585 65.8262 10.0038C65.8758 9.95389 65.581 9.58059 65.4775 9.42118C65.4407 9.35003 65.4279 9.30248 65.3671 9.42955C65.3031 9.53284 65.2808 9.71815 65.3064 9.88148C65.4605 10.9084 65.5751 11.6799 65.5988 12.59C65.5855 12.6764 65.5822 12.723 65.5411 12.8318C65.4502 12.9467 65.3494 13.0903 65.255 13.1598C65.1605 13.2291 64.959 13.2954 64.8933 13.3469V13.3468Z" fill="white"/>
<path fill-rule="evenodd" clip-rule="evenodd" d="M65.0498 12.4262C65.0474 12.186 65.0532 11.9786 65.0452 11.7995C65.0372 11.6204 65.0051 11.4745 64.9422 11.3474C64.8826 11.2111 64.9196 11.1015 64.8916 10.9563C64.8637 10.8111 64.8706 10.5937 64.8283 10.4215C64.8168 10.3542 64.7813 10.1387 64.7923 10.1181C64.8095 10.07 64.875 10.1196 64.907 10.0639C64.955 10.0123 64.7407 9.46594 64.632 9.30991C64.5929 9.23996 64.522 9.26393 64.4345 9.37765C64.3533 9.45252 64.3834 9.62322 64.4144 9.78558C64.6229 10.8577 64.7783 11.8282 64.7444 12.8488C64.734 12.9356 65.0519 12.59 65.0498 12.4262ZM63.5094 11.0964C63.3783 11.094 63.1036 10.8449 63.0235 10.6989C62.9932 10.6152 63.0126 10.5335 63.0393 10.4857C63.0878 10.4546 63.1626 10.4196 63.2184 10.4532C63.2184 10.4532 63.2763 10.533 63.2651 10.5431C63.3367 10.5769 63.3671 10.5575 63.3744 10.5288C63.3792 10.4785 63.3532 10.4486 63.3529 10.3932C63.3832 10.2432 63.5573 10.2198 63.6229 10.3155C63.6709 10.3739 63.6885 10.4979 63.6957 10.5816C63.695 10.6244 63.6247 10.5742 63.5848 10.5845C63.5448 10.5948 63.5352 10.6402 63.5321 10.6813C63.5249 10.7901 63.5118 10.9648 63.5094 11.0963V11.0964ZM61.0893 12.6924C61.1255 12.3661 61.076 11.785 61.0727 11.5924C61.0594 11.1375 60.9841 10.2589 60.9482 10.1121C60.9077 9.83545 61.0636 10.1425 61.042 9.98165C60.9915 9.70536 60.836 9.51806 60.6532 9.26499C60.5942 9.18265 60.5962 9.16588 60.5052 9.28518C60.4045 9.5103 60.4914 9.66519 60.5175 9.84053C60.6493 10.4118 60.7262 10.9375 60.762 11.4571C60.7978 11.9767 60.8089 12.5386 60.7761 13.0859C60.8749 13.0897 61.0338 12.9284 61.0893 12.6924Z" fill="white"/>
<path fill-rule="evenodd" clip-rule="evenodd" d="M65.4959 12.17C65.2647 11.7876 64.9158 11.3735 64.8226 11.2196C64.7294 11.0656 63.941 10.0631 63.8406 9.96249C63.5522 9.6639 63.9728 9.91388 63.7853 9.68325C63.6267 9.51166 63.5805 9.4578 63.4448 9.35461C63.3767 9.31128 63.3355 9.2285 63.3131 9.36955C63.3042 9.49346 63.2949 9.63684 63.3034 9.74126C63.3029 9.79933 63.3643 9.9084 63.4169 9.97269C64.1162 10.8194 64.8789 11.6839 65.4929 12.7707C65.5802 12.7251 65.5512 12.2372 65.4959 12.17Z" fill="white"/>
<path fill-rule="evenodd" clip-rule="evenodd" d="M55.0052 11.4642C54.9886 11.4929 54.9515 11.5302 54.9639 11.5688C54.9899 11.6034 55.0106 11.6105 55.0539 11.6123C55.0914 11.6123 55.1438 11.6211 55.1551 11.5993C55.1753 11.5774 55.1907 11.5326 55.1739 11.4903C55.1348 11.394 55.0256 11.4299 55.0052 11.4642Z" fill="#1BA400"/>
<path fill-rule="evenodd" clip-rule="evenodd" d="M62.8074 17.0376C63.1167 17.0488 63.319 17.0515 63.5941 17.0837C63.5941 17.0837 63.8313 17.0606 63.9159 17.048C64.2739 17.0143 64.2898 17.5519 64.2898 17.5519C64.2859 17.8672 64.1624 17.8837 64.0047 17.917C63.9147 17.9283 63.8673 17.8638 63.82 17.7952C63.7606 17.8197 63.6798 17.8232 63.582 17.8098C63.4531 17.8019 63.3243 17.8024 63.1954 17.7944C63.0585 17.7826 62.9857 17.8085 62.8488 17.7966C62.8206 17.8403 62.784 17.9007 62.7002 17.8813C62.6306 17.8737 62.5481 17.681 62.5723 17.5344C62.6226 17.4294 62.6088 17.4632 62.6036 17.417C61.3393 17.3853 60.0629 17.3297 58.8227 17.3456C57.8524 17.3496 56.8941 17.3892 55.9358 17.4289C55.4245 17.421 55.0339 17.3416 54.7642 16.9528C54.7883 16.9528 56.0687 17.0242 56.4432 17.0004C57.1357 16.9924 57.7678 16.9369 58.4724 16.917C59.8615 16.9408 61.2386 16.9409 62.6276 17.0361C62.4947 16.9465 62.49 16.7349 62.6945 16.6831C62.7119 16.6714 62.7208 16.7884 62.7514 16.7862C62.9151 16.7741 62.8433 16.9925 62.8073 17.0375L62.8074 17.0376ZM57.2305 9.49181C57.02 10.0848 57.3511 10.7334 57.5807 10.6703C57.7463 10.7378 57.8518 10.4273 57.9196 10.0871C57.966 9.99162 58.001 9.98146 58.0248 10.0305C58.0187 10.4829 58.0578 10.5831 58.1759 10.7205C58.4391 10.9206 58.6569 10.746 58.674 10.7292L58.879 10.5271C58.9246 10.4798 58.9853 10.4771 59.0498 10.5187C59.1124 10.5749 59.1036 10.6717 59.2377 10.739C59.3505 10.7834 59.5918 10.7492 59.6477 10.6534C59.7229 10.5264 59.741 10.4828 59.7758 10.4346C59.8295 10.3642 59.921 10.3955 59.921 10.4177C59.9124 10.457 59.8587 10.4963 59.8954 10.567C59.9592 10.6142 59.974 10.5839 60.0117 10.5734C60.1453 10.5104 60.2455 10.2241 60.2455 10.2241C60.2515 10.1176 60.1909 10.1264 60.1516 10.1484C60.1004 10.1792 60.097 10.1891 60.0458 10.22C59.9805 10.2295 59.8538 10.2722 59.7912 10.1767C59.7272 10.0617 59.7263 9.9014 59.6774 9.78552C59.6774 9.77709 59.5926 9.60297 59.6716 9.59182C59.7114 9.59912 59.7964 9.6213 59.81 9.55074C59.8518 9.48195 59.7205 9.28718 59.6306 9.1888C59.5526 9.10439 59.4445 9.09423 59.3402 9.1804C59.2672 9.24664 59.2777 9.32065 59.2633 9.39081C59.2447 9.47136 59.2487 9.57047 59.3317 9.67702C59.4046 9.81869 59.5376 10.0012 59.4939 10.2578C59.4939 10.2578 59.4162 10.3791 59.2808 10.3632C59.2244 10.3511 59.1329 10.3275 59.084 9.97159C59.0469 9.70225 59.0927 9.32536 58.9767 9.14869C58.9348 9.04201 58.9042 8.93898 58.8021 9.12146C58.7747 9.19311 58.6569 9.30185 58.7423 9.52551C58.8122 9.66729 58.8406 9.89805 58.8089 10.1548C58.7605 10.2278 58.7498 10.2525 58.6863 10.3255C58.5971 10.4199 58.5004 10.3958 58.4263 10.3605C58.357 10.3145 58.3028 10.2908 58.2712 10.1447C58.277 9.91183 58.2901 9.53062 58.2469 9.44977C58.1832 9.32453 58.0782 9.36982 58.0334 9.40767C57.8178 9.60188 57.7114 9.92956 57.6463 10.1905C57.5865 10.3807 57.5229 10.3262 57.4782 10.2494C57.3693 10.1489 57.3619 9.36258 57.2305 9.49188V9.49181Z" fill="white"/>
<path fill-rule="evenodd" clip-rule="evenodd" d="M57.8643 10.7806C57.9599 10.7138 57.9152 10.6672 58.0581 10.8081C58.2371 11.1096 58.3522 11.5002 58.3694 11.8462C58.3619 11.9315 58.4228 11.9854 58.4507 11.9669C58.4673 11.7667 58.9613 11.4878 59.4142 11.447C59.4834 11.4322 59.4498 11.3014 59.461 11.2347C59.4339 10.9869 59.6023 10.7612 59.8384 10.7433C60.1598 10.7901 60.2668 10.9591 60.2722 11.2172C60.2375 11.7127 59.7138 11.7967 59.4195 11.8362C59.3744 11.853 59.3556 11.8736 59.4195 11.8978L60.6524 11.9033L60.7153 11.9391C60.7229 11.9681 60.6974 11.9439 60.6487 12.0229C60.6 12.1019 60.5282 12.2841 60.5245 12.4057C60.1572 12.5221 59.7773 12.5731 59.3911 12.6191C59.2569 12.686 59.1904 12.7751 59.218 12.8754C59.2631 12.9866 59.5603 13.0977 59.5603 13.103C59.6167 13.1378 59.6835 13.2192 59.5443 13.386C58.9429 13.36 58.4769 13.1077 58.3155 12.7517C58.2669 12.7146 58.2146 12.7515 58.181 12.7996C57.9462 13.0979 57.7152 13.3665 57.3149 13.5091C57.0761 13.5679 56.8318 13.473 56.7163 13.319C56.6391 13.2313 56.642 13.1345 56.6136 13.1135C56.4846 13.1697 55.3743 13.6347 55.515 13.4181C55.7852 13.133 56.2531 12.9237 56.6662 12.6424C56.6961 12.5481 56.7503 12.2293 56.9134 12.1254C56.9229 12.1262 56.8876 12.3127 56.8911 12.3913C56.893 12.4558 56.8863 12.4811 56.9007 12.4645C56.9285 12.447 57.4299 12.0588 57.4686 11.9398C57.5174 11.8715 57.4833 11.6986 57.4833 11.6934C57.3893 11.4546 57.2574 11.4343 57.2085 11.3156C57.1645 11.158 57.1844 10.9781 57.2758 10.928C57.357 10.8554 57.4531 10.8643 57.5418 10.9437C57.6431 11.0331 57.733 11.2078 57.759 11.3379C57.7416 11.3894 57.6265 11.3037 57.5866 11.3293C57.6572 11.4014 57.6902 11.4846 57.7158 11.5864C57.7811 11.8589 57.7611 11.9649 57.6954 12.1411C57.4728 12.6023 57.1884 12.74 56.9395 12.9108C56.9329 12.9131 56.9285 13.0279 57.0221 13.0899C57.0543 13.1233 57.1841 13.1404 57.3368 13.0922C57.6318 12.9337 57.938 12.6417 58.09 12.3164C58.1341 12.0703 58.0729 11.8093 58.008 11.5818C57.9102 11.3594 57.795 11.0418 57.795 11.0366C57.7912 10.8979 57.8026 10.8498 57.8643 10.7806H57.8643ZM54.6363 9.49794C54.7782 9.56464 55.045 9.53625 55.0337 9.31074C55.0337 9.29082 55.0286 9.22335 55.0265 9.20505C54.9976 9.13858 54.9186 9.15501 54.9006 9.22365C54.895 9.24612 54.9107 9.28275 54.89 9.29404C54.8782 9.30582 54.8328 9.29888 54.8347 9.23659C54.8347 9.21674 54.8199 9.19542 54.8109 9.18281C54.802 9.17703 54.7963 9.17543 54.78 9.17543C54.7602 9.1762 54.7605 9.18128 54.7497 9.19768C54.7451 9.21435 54.7388 9.23065 54.7388 9.24958C54.7363 9.27176 54.7278 9.27966 54.7112 9.28295C54.6927 9.28295 54.6969 9.28494 54.6819 9.27554C54.673 9.26591 54.6619 9.26226 54.6619 9.24589C54.6619 9.22892 54.658 9.20147 54.6528 9.19028C54.645 9.18005 54.6323 9.17534 54.6181 9.17172C54.5406 9.17198 54.5352 9.25911 54.5397 9.29218C54.5339 9.29842 54.5306 9.45471 54.6363 9.49794Z" fill="white"/>
<path fill-rule="evenodd" clip-rule="evenodd" d="M58.7962 11.2332C58.9381 11.2999 59.2759 11.2615 59.1936 11.046C59.1936 11.0261 59.1885 10.9586 59.1865 10.9403C59.1575 10.8738 59.0785 10.8903 59.0605 10.9589C59.0549 10.9814 59.0706 11.018 59.0499 11.0293C59.0381 11.0411 58.9927 11.0341 58.9946 10.9719C58.9946 10.952 58.9798 10.9307 58.9708 10.9181C58.9619 10.9123 58.9562 10.9107 58.9399 10.9107C58.9201 10.9115 58.9205 10.9165 58.9096 10.9329C58.905 10.9496 58.8987 10.9659 58.8987 10.9848C58.8962 11.007 58.8877 11.0149 58.8711 11.0182C58.8526 11.0182 58.8568 11.0202 58.8418 11.0108C58.8329 11.0012 58.8218 10.9975 58.8218 10.9812C58.8218 10.9642 58.8179 10.9367 58.8127 10.9255C58.8049 10.9153 58.7922 10.9106 58.778 10.907C58.7005 10.9072 58.6951 10.9944 58.6996 11.0274C58.6938 11.0337 58.6905 11.19 58.7962 11.2332ZM61.222 10.515C61.3639 10.5817 61.6307 10.5533 61.6194 10.3278C61.6194 10.3079 61.6143 10.2404 61.6122 10.2221C61.5833 10.1557 61.5043 10.1721 61.4863 10.2407C61.4807 10.2632 61.4964 10.2998 61.4757 10.3111C61.4639 10.3229 61.4185 10.316 61.4204 10.2537C61.4204 10.2338 61.4056 10.2125 61.3966 10.1999C61.3876 10.1941 61.382 10.1925 61.3657 10.1925C61.3459 10.1933 61.3462 10.1984 61.3354 10.2148C61.3308 10.2314 61.3244 10.2477 61.3244 10.2667C61.322 10.2888 61.3135 10.2967 61.2969 10.3C61.2784 10.3 61.2826 10.302 61.2676 10.2926C61.2587 10.283 61.2476 10.2793 61.2476 10.263C61.2476 10.246 61.2437 10.2185 61.2385 10.2074C61.2306 10.1971 61.218 10.1924 61.2038 10.1888C61.1263 10.1891 61.1209 10.2762 61.1254 10.3093C61.1196 10.3155 61.1163 10.4718 61.222 10.515ZM62.4783 12.3189C62.231 12.5936 62.3401 13.0479 62.3959 13.1458C62.4775 13.3066 62.5431 13.4097 62.7018 13.4892C62.8463 13.594 62.9589 13.5285 63.021 13.4551C63.1664 13.3066 63.1681 12.9274 63.2364 12.8522C63.2843 12.7142 63.4049 12.7378 63.4634 12.7989C63.5201 12.8793 63.5869 12.9311 63.6702 12.9748C63.8058 13.0928 63.9678 13.1143 64.1274 13.0068C64.2365 12.9465 64.3073 12.8687 64.3712 12.714C64.4421 12.5271 64.4026 11.6632 64.3884 11.1512C64.3829 11.111 64.2474 10.4472 64.2474 10.4397C64.2474 10.4323 64.2295 10.1009 64.2146 10.022C64.212 9.98991 64.2039 9.98071 64.238 9.98476C64.2742 10.0147 64.2791 10.0166 64.3017 10.0265C64.3381 10.0331 64.3708 9.97188 64.3488 9.9156L64.0103 9.30025C63.9831 9.27389 63.948 9.24493 63.9049 9.30769C63.8637 9.34325 63.8199 9.40763 63.8212 9.4904C63.8313 9.63623 63.8573 9.78458 63.8673 9.93044L64.0027 10.6792C64.0454 11.213 64.056 11.6499 64.0987 12.1836C64.0927 12.4097 64.0214 12.6067 63.9545 12.6351C63.9545 12.6351 63.8528 12.6932 63.7846 12.6291C63.7349 12.6094 63.5363 12.3028 63.5363 12.3028C63.4348 12.2111 63.3678 12.2373 63.2956 12.3028C63.0963 12.4925 63.0062 12.8472 62.8707 13.0918C62.8358 13.1465 62.7372 13.1932 62.6278 13.0879C62.3501 12.7141 62.5129 12.1822 62.4783 12.3189ZM61.2857 9.20582C61.4128 9.25828 61.5025 9.51205 61.4732 9.63597C61.4479 9.78926 61.3805 9.95482 61.332 9.93327C61.2793 9.91401 61.3679 9.78086 61.3173 9.64121C61.2892 9.5503 61.1157 9.38419 61.134 9.33521C61.0981 9.23261 61.2077 9.18772 61.2857 9.20582Z" fill="white"/>
<path fill-rule="evenodd" clip-rule="evenodd" d="M62.8877 12.4693C62.9144 12.1645 62.8693 11.9787 62.8613 11.7996C62.8533 11.6204 62.6557 10.2537 62.6156 10.1181C62.5673 9.86186 62.8077 10.0838 62.7814 9.93471C62.6982 9.74678 62.4913 9.47319 62.4263 9.30996C62.3872 9.24003 62.4036 9.17781 62.3161 9.29157C62.2349 9.55307 62.2067 9.76683 62.2377 9.92923C62.4462 11.0014 62.66 11.8929 62.6261 12.9135C62.7249 12.9142 62.8389 12.6905 62.8877 12.4693ZM65.0598 9.63774C65.1757 9.69452 65.2436 10.0126 65.2308 10.1034C65.2077 10.2694 65.1462 10.4487 65.1021 10.4253C65.054 10.4045 65.1117 10.1792 65.0886 10.1091C65.063 10.0107 64.9048 9.83088 64.9215 9.77786C64.8888 9.66679 64.9887 9.61818 65.0598 9.63774ZM56.4459 11.8929C56.5567 11.9346 56.6218 12.1683 56.6095 12.2351C56.5874 12.357 56.5285 12.4888 56.4863 12.4716C56.4404 12.4563 56.4956 12.2907 56.4735 12.2393C56.4641 12.1144 56.3102 12.0498 56.3134 11.9959C56.2847 11.8967 56.3778 11.8785 56.4459 11.8929Z" fill="white"/>
<path fill-rule="evenodd" clip-rule="evenodd" d="M59.1248 12.244C59.2678 12.253 59.3394 12.3636 59.2053 12.4101C59.0731 12.4547 58.9461 12.4895 58.9454 12.6778C58.9944 12.9402 58.8784 12.8501 58.8092 12.8145C58.7277 12.7568 58.499 12.6179 58.4664 12.3181C58.4615 12.2466 58.5181 12.1863 58.6092 12.1868C58.7465 12.2235 58.9491 12.2262 59.1247 12.244H59.1248Z" fill="#1B9D00"/>
<path fill-rule="evenodd" clip-rule="evenodd" d="M53.4827 9.13009C53.6463 9.1787 53.6559 9.41564 53.6439 9.4849C53.6221 9.61133 53.5641 9.74787 53.5225 9.73007C53.4772 9.7142 53.5207 9.54257 53.499 9.48918C53.4747 9.41421 53.3365 9.27721 53.3522 9.23684C53.3214 9.1522 53.4156 9.11515 53.4827 9.13009ZM56.713 10.247C56.5875 10.3139 56.5389 10.5133 56.617 10.6295C56.69 10.7317 56.8053 10.6938 56.8206 10.6938C56.9436 10.709 57.0165 10.4666 57.0165 10.4666C57.0165 10.4666 57.0204 10.3985 56.8744 10.5273C56.8129 10.5386 56.8053 10.5159 56.7899 10.4818C56.7771 10.4187 56.7797 10.3556 56.8091 10.2925C56.8309 10.2319 56.7835 10.2054 56.713 10.247ZM57.6544 9.03845C57.5913 9.08012 57.4658 9.20828 57.4619 9.35597C57.4581 9.43928 57.4424 9.43901 57.4977 9.49204C57.5377 9.54888 57.578 9.54377 57.6588 9.5021C57.7051 9.46843 57.7208 9.44608 57.7364 9.38964C57.7556 9.29501 57.6349 9.43453 57.6195 9.32921C57.5926 9.23139 57.6702 9.19135 57.7432 9.09672C57.7456 9.03187 57.7442 8.98595 57.6544 9.03845ZM58.4128 9.17126C58.3856 9.23043 58.353 9.53958 58.3584 9.53958C58.3367 9.63169 58.4562 9.6711 58.5106 9.5527C58.5921 9.33565 58.5921 9.24358 58.5975 9.15147C58.5721 9.01122 58.4762 9.0156 58.4128 9.17126ZM63.1943 11.5692C63.2106 11.5531 63.868 11.0926 63.868 11.0926C63.935 11.0694 63.9205 11.33 63.8898 11.3282C63.9024 11.38 63.2414 11.8226 63.1942 11.8048C63.1616 11.828 63.129 11.6263 63.1942 11.5692H63.1943ZM63.7936 11.5652C63.9095 11.622 63.9557 11.9561 63.9429 12.047C63.947 12.2237 63.8312 12.3654 63.787 12.3421C63.7389 12.3212 63.7912 12.1227 63.7681 12.0527C63.7425 11.9542 63.6441 11.769 63.6607 11.716C63.6281 11.6049 63.7225 11.5456 63.7936 11.5652ZM59.8831 13.0042C59.9288 12.9384 60.0701 12.8436 60.0733 12.8436C60.1384 12.8114 60.2021 12.8688 60.1983 12.865C60.2091 12.9293 60.157 12.9891 60.1733 13.0748C60.1875 13.1093 60.198 13.1476 60.2622 13.133C60.3666 13.0521 60.4633 13.0469 60.5677 13.0417C60.6477 13.0465 60.6509 13.1799 60.6003 13.1809C60.4075 13.2222 60.3212 13.2731 60.1835 13.3248C60.1183 13.3623 60.0624 13.3148 60.0624 13.3094C60.0624 13.3041 60.0242 13.273 60.0509 13.1878C60.0556 13.1196 60.0277 13.0822 59.97 13.0899C59.9265 13.1131 59.8883 13.1284 59.8665 13.0792C59.858 13.0428 59.8552 13.0251 59.8831 13.0042ZM64.4853 13.1842C64.5135 13.2195 64.5317 13.2522 64.4831 13.3103C64.4369 13.3519 64.4045 13.3748 64.3584 13.4165C64.3366 13.4531 64.3227 13.5086 64.3893 13.5263C64.5122 13.5603 64.7965 13.3786 64.7965 13.3748C64.8426 13.3407 64.8273 13.2764 64.8234 13.2764C64.7965 13.2461 64.7359 13.2641 64.6952 13.2592C64.6758 13.2592 64.6122 13.2497 64.6425 13.1942C64.6677 13.1596 64.6768 13.1385 64.6939 13.0959C64.7131 13.0543 64.6966 13.0265 64.6275 13.0038C64.557 12.9911 64.5289 12.9975 64.4507 13.0038C64.4085 13.0126 64.3941 13.0312 64.3864 13.0817C64.3894 13.1583 64.4367 13.1539 64.4853 13.1842Z" fill="white"/>
<path fill-rule="evenodd" clip-rule="evenodd" d="M59.9082 11.3C59.8902 11.3307 59.8293 11.3292 59.7721 11.2966C59.715 11.2641 59.6832 11.2127 59.7013 11.182C59.7193 11.1512 59.7802 11.1528 59.8374 11.1854C59.8945 11.218 59.9263 11.2693 59.9082 11.3ZM56.9073 9.52048C56.8731 9.52871 56.8285 9.4987 56.8076 9.45344C56.7866 9.40818 56.7974 9.36482 56.8315 9.35659C56.8657 9.34835 56.9103 9.37833 56.9313 9.42359C56.9522 9.46885 56.9414 9.51224 56.9073 9.52048Z" fill="#259F00"/>
<path fill-rule="evenodd" clip-rule="evenodd" d="M62.8435 17.4502C63.1585 17.4653 63.4546 17.4537 63.7696 17.4689C63.8267 17.5167 63.7859 17.6341 63.7479 17.6257C63.6455 17.6231 63.5864 17.6206 63.484 17.6181C63.4805 17.5192 63.2243 17.5354 63.2317 17.6212C63.0934 17.6376 62.9687 17.6165 62.8304 17.6114C62.7895 17.5613 62.7947 17.4709 62.8435 17.4502H62.8435Z" fill="#209000"/>
</g>
</g>
<line x1="42.5" y1="4" x2="42.5" y2="23" stroke="#E6EAEF"/>
<path d="M3.724 18C2.92133 18 2.28667 17.8787 1.82 17.636C1.36267 17.384 1.036 17.0013 0.84 16.488C0.653333 15.9653 0.56 15.3027 0.56 14.5C0.56 13.7067 0.653333 13.0487 0.84 12.526C1.036 12.0033 1.36267 11.6207 1.82 11.378C2.28667 11.126 2.92133 11 3.724 11H6.664V17.398H5.46V11.616L6.006 12.078H3.724C3.21067 12.078 2.80933 12.1433 2.52 12.274C2.24 12.3953 2.044 12.6287 1.932 12.974C1.82 13.3193 1.764 13.828 1.764 14.5C1.764 15.172 1.81533 15.6807 1.918 16.026C2.03 16.3713 2.23067 16.6093 2.52 16.74C2.80933 16.8613 3.21067 16.922 3.724 16.922H8.176V18H3.724ZM8.176 18V16.922C8.29733 16.922 8.372 16.9687 8.4 17.062C8.43733 17.1553 8.456 17.286 8.456 17.454C8.456 17.6127 8.43733 17.7433 8.4 17.846C8.372 17.9487 8.29733 18 8.176 18ZM2.324 9.796V8.494H3.528V9.796H2.324ZM4.242 9.796V8.494H5.446V9.796H4.242ZM10.6898 18V16.922H12.2298V18H10.6898ZM12.2298 18V16.922C12.3511 16.922 12.4258 16.9687 12.4538 17.062C12.4911 17.1553 12.5098 17.286 12.5098 17.454C12.5098 17.6127 12.4911 17.7433 12.4538 17.846C12.4258 17.9487 12.3511 18 12.2298 18ZM7.87578 18V16.922H10.0738L9.48578 17.398V11H10.6898V18H7.87578ZM7.87578 18C7.75445 18 7.67978 17.9487 7.65178 17.846C7.61445 17.7433 7.59578 17.6127 7.59578 17.454C7.59578 17.286 7.61445 17.1553 7.65178 17.062C7.67978 16.9687 7.75445 16.922 7.87578 16.922V18ZM8.43578 20.576V19.274H9.63978V20.576H8.43578ZM10.3538 20.576V19.274H11.5578V20.576H10.3538ZM11.9234 18V16.922H14.0094L13.4354 17.398V11H14.6254V18H11.9234ZM11.9234 18C11.8021 18 11.7274 17.9487 11.6994 17.846C11.6621 17.7433 11.6434 17.6127 11.6434 17.454C11.6434 17.286 11.6621 17.1553 11.6994 17.062C11.7274 16.9687 11.8021 16.922 11.9234 16.922V18ZM13.4354 20.59V19.288H14.6394V20.59H13.4354ZM17.9716 18V16.922H19.7636V18H17.9716ZM15.6336 21.15C15.5122 21.15 15.3862 21.1407 15.2556 21.122C15.1156 21.1127 14.9802 21.1033 14.8496 21.094L14.9616 20.016C15.0922 20.0253 15.2182 20.0347 15.3396 20.044C15.4516 20.0627 15.5496 20.072 15.6336 20.072C16.0629 20.072 16.4082 19.9087 16.6696 19.582C16.9309 19.2553 17.0616 18.8027 17.0616 18.224V11H18.2656V18.224C18.2656 18.8027 18.1536 19.3113 17.9296 19.75C17.7056 20.198 17.3929 20.5433 16.9916 20.786C16.5996 21.0287 16.1469 21.15 15.6336 21.15ZM19.7636 18V16.922C19.8849 16.922 19.9596 16.9687 19.9876 17.062C20.0249 17.1553 20.0436 17.286 20.0436 17.454C20.0436 17.6127 20.0249 17.7433 19.9876 17.846C19.9596 17.9487 19.8849 18 19.7636 18ZM19.4582 18V16.922H21.4882C22.0202 16.922 22.5335 16.8333 23.0282 16.656C23.5229 16.4787 23.9755 16.2407 24.3862 15.942C24.8062 15.6433 25.1702 15.3167 25.4782 14.962C25.7862 14.598 26.0242 14.2293 26.1922 13.856C26.3602 13.4733 26.4442 13.1187 26.4442 12.792V11.938L27.0742 12.904C26.5422 12.6333 26.0149 12.428 25.4922 12.288C24.9789 12.148 24.4749 12.078 23.9802 12.078C23.4949 12.078 22.9909 12.148 22.4682 12.288C21.9455 12.428 21.4229 12.6333 20.9002 12.904L21.5302 11.938V12.792C21.5302 13.1187 21.6142 13.4733 21.7822 13.856C21.9595 14.2293 22.1975 14.598 22.4962 14.962C22.8042 15.3167 23.1635 15.6433 23.5742 15.942C23.9849 16.2407 24.4375 16.4787 24.9322 16.656C25.4269 16.8333 25.9449 16.922 26.4862 16.922H28.4182V18H26.5562C25.8282 18 25.1469 17.8833 24.5122 17.65C23.8775 17.4167 23.3035 17.1087 22.7902 16.726C22.2769 16.334 21.8335 15.9093 21.4602 15.452C21.0962 14.9853 20.8162 14.5233 20.6202 14.066C20.4242 13.5993 20.3262 13.1747 20.3262 12.792V11.952C20.7275 11.7373 21.1382 11.56 21.5582 11.42C21.9782 11.28 22.3935 11.1773 22.8042 11.112C23.2149 11.0373 23.6069 11 23.9802 11C24.3629 11 24.7595 11.0373 25.1702 11.112C25.5809 11.1773 25.9915 11.28 26.4022 11.42C26.8222 11.56 27.2329 11.7373 27.6342 11.952V12.792C27.6342 13.1747 27.5362 13.5993 27.3402 14.066C27.1442 14.5233 26.8595 14.9853 26.4862 15.452C26.1222 15.9093 25.6835 16.334 25.1702 16.726C24.6569 17.1087 24.0829 17.4167 23.4482 17.65C22.8135 17.8833 22.1322 18 21.4042 18H19.4582ZM19.4582 18C19.3369 18 19.2622 17.9487 19.2342 17.846C19.1969 17.7433 19.1782 17.6127 19.1782 17.454C19.1782 17.286 19.1969 17.1553 19.2342 17.062C19.2622 16.9687 19.3369 16.922 19.4582 16.922V18ZM28.4182 18V16.922C28.5395 16.922 28.6142 16.9687 28.6422 17.062C28.6795 17.1553 28.6982 17.286 28.6982 17.454C28.6982 17.6127 28.6795 17.7433 28.6422 17.846C28.6142 17.9487 28.5395 18 28.4182 18ZM29.7933 18V7.976H30.9973V18H29.7933ZM28.1133 18V16.922H29.7933V18H28.1133ZM28.1133 18C27.9919 18 27.9173 17.9487 27.8893 17.846C27.8519 17.7433 27.8333 17.6127 27.8333 17.454C27.8333 17.286 27.8519 17.1553 27.8893 17.062C27.9173 16.9687 27.9919 16.922 28.1133 16.922V18ZM33.0808 18V7.976H34.2708V18H33.0808Z" fill="black"/>
<defs>
<clipPath id="clip0_15_150">
<rect width="23" height="17" fill="white" transform="translate(48 5)"/>
</clipPath>
</defs>
</svg>
