<svg width="36" height="36" viewBox="0 0 36 36" fill="none" xmlns="http://www.w3.org/2000/svg">
<path d="M31.1907 24.9667C30.4102 23.6223 29.2501 19.8184 29.2501 14.8501C29.2501 11.8664 28.0648 9.00493 25.955 6.89515C23.8452 4.78536 20.9838 3.6001 18.0001 3.6001C15.0164 3.6001 12.1549 4.78536 10.0451 6.89515C7.93534 9.00493 6.75008 11.8664 6.75008 14.8501C6.75008 19.8198 5.58852 23.6223 4.80805 24.9667C4.60874 25.3084 4.50308 25.6967 4.50172 26.0924C4.50036 26.488 4.60336 26.877 4.80031 27.2202C4.99727 27.5633 5.28122 27.8484 5.62354 28.0468C5.96586 28.2452 6.35443 28.3498 6.75008 28.3501H12.489C12.7485 29.6202 13.4388 30.7616 14.443 31.5813C15.4472 32.4011 16.7038 32.8488 18.0001 32.8488C19.2964 32.8488 20.5529 32.4011 21.5571 31.5813C22.5614 30.7616 23.2516 29.6202 23.5112 28.3501H29.2501C29.6456 28.3496 30.034 28.2448 30.3761 28.0463C30.7182 27.8478 31.002 27.5627 31.1988 27.2196C31.3956 26.8765 31.4984 26.4875 31.497 26.092C31.4956 25.6965 31.39 25.3083 31.1907 24.9667ZM18.0001 30.6001C17.3023 30.5999 16.6218 30.3834 16.0521 29.9805C15.4825 29.5775 15.0517 29.0079 14.8191 28.3501H21.181C20.9484 29.0079 20.5177 29.5775 19.948 29.9805C19.3784 30.3834 18.6978 30.5999 18.0001 30.6001ZM6.75008 26.1001C7.83289 24.2382 9.00008 19.9238 9.00008 14.8501C9.00008 12.4631 9.94829 10.174 11.6361 8.48614C13.3239 6.79831 15.6131 5.8501 18.0001 5.8501C20.387 5.8501 22.6762 6.79831 24.364 8.48614C26.0519 10.174 27.0001 12.4631 27.0001 14.8501C27.0001 19.9196 28.1645 24.234 29.2501 26.1001H6.75008Z" fill="#7A7879"/>
<circle cx="25.2001" cy="10.8" r="9.6" fill="#1DBF73"/>
<path d="M22.2496 13.5999V6.99985L22.6796 7.46985H20.6696V6.59985H23.2396V13.5999H22.2496ZM27.6808 13.6799C27.1342 13.6799 26.6442 13.5399 26.2108 13.2599C25.7842 12.9799 25.4442 12.5732 25.1908 12.0399C24.9442 11.5065 24.8208 10.8599 24.8208 10.0999C24.8208 9.33985 24.9442 8.69319 25.1908 8.15985C25.4442 7.62652 25.7842 7.21985 26.2108 6.93985C26.6442 6.65985 27.1342 6.51985 27.6808 6.51985C28.2208 6.51985 28.7075 6.65985 29.1408 6.93985C29.5742 7.21985 29.9142 7.62652 30.1608 8.15985C30.4075 8.69319 30.5308 9.33985 30.5308 10.0999C30.5308 10.8599 30.4075 11.5065 30.1608 12.0399C29.9142 12.5732 29.5742 12.9799 29.1408 13.2599C28.7075 13.5399 28.2208 13.6799 27.6808 13.6799ZM27.6808 12.7899C28.0475 12.7899 28.3675 12.6899 28.6408 12.4899C28.9208 12.2899 29.1375 11.9899 29.2908 11.5899C29.4508 11.1899 29.5308 10.6932 29.5308 10.0999C29.5308 9.50652 29.4508 9.00985 29.2908 8.60985C29.1375 8.20985 28.9208 7.90985 28.6408 7.70985C28.3675 7.50985 28.0475 7.40985 27.6808 7.40985C27.3142 7.40985 26.9908 7.50985 26.7108 7.70985C26.4308 7.90985 26.2108 8.20985 26.0508 8.60985C25.8975 9.00985 25.8208 9.50652 25.8208 10.0999C25.8208 10.6932 25.8975 11.1899 26.0508 11.5899C26.2108 11.9899 26.4308 12.2899 26.7108 12.4899C26.9908 12.6899 27.3142 12.7899 27.6808 12.7899Z" fill="white"/>
</svg>
