<svg width="83" height="82" viewBox="0 0 83 82" fill="none" xmlns="http://www.w3.org/2000/svg">
<path d="M51.8125 18.5625H47.125V17.625C47.125 16.8791 46.8287 16.1637 46.3012 15.6363C45.7738 15.1088 45.0584 14.8125 44.3125 14.8125H38.6875C37.9416 14.8125 37.2262 15.1088 36.6988 15.6363C36.1713 16.1637 35.875 16.8791 35.875 17.625V18.5625H31.1875C30.6902 18.5625 30.2133 18.76 29.8617 19.1117C29.51 19.4633 29.3125 19.9402 29.3125 20.4375V35.4375C29.3125 35.9348 29.51 36.4117 29.8617 36.7633C30.2133 37.115 30.6902 37.3125 31.1875 37.3125H51.8125C52.3098 37.3125 52.7867 37.115 53.1383 36.7633C53.49 36.4117 53.6875 35.9348 53.6875 35.4375V20.4375C53.6875 19.9402 53.49 19.4633 53.1383 19.1117C52.7867 18.76 52.3098 18.5625 51.8125 18.5625ZM37.75 17.625C37.75 17.3764 37.8488 17.1379 38.0246 16.9621C38.2004 16.7863 38.4389 16.6875 38.6875 16.6875H44.3125C44.5611 16.6875 44.7996 16.7863 44.9754 16.9621C45.1512 17.1379 45.25 17.3764 45.25 17.625V18.5625H37.75V17.625ZM51.8125 20.4375V25.3137C48.6482 27.0361 45.1027 27.9381 41.5 27.9375C37.8974 27.9382 34.3521 27.0365 31.1875 25.3148V20.4375H51.8125ZM51.8125 35.4375H31.1875V27.4266C34.3984 28.9971 37.9256 29.8132 41.5 29.8125C45.0744 29.8126 48.6017 28.9961 51.8125 27.4254V35.4375ZM38.6875 25.125C38.6875 24.8764 38.7863 24.6379 38.9621 24.4621C39.1379 24.2863 39.3764 24.1875 39.625 24.1875H43.375C43.6236 24.1875 43.8621 24.2863 44.0379 24.4621C44.2137 24.6379 44.3125 24.8764 44.3125 25.125C44.3125 25.3736 44.2137 25.6121 44.0379 25.7879C43.8621 25.9637 43.6236 26.0625 43.375 26.0625H39.625C39.3764 26.0625 39.1379 25.9637 38.9621 25.7879C38.7863 25.6121 38.6875 25.3736 38.6875 25.125Z" fill="#C3C5C8"/>
<path d="M13.68 66V54.8H18.048C19.0293 54.8 19.8667 54.9547 20.56 55.264C21.2533 55.5733 21.7867 56.0213 22.16 56.608C22.5333 57.1947 22.72 57.8933 22.72 58.704C22.72 59.5147 22.5333 60.2133 22.16 60.8C21.7867 61.376 21.2533 61.824 20.56 62.144C19.8667 62.4533 19.0293 62.608 18.048 62.608H14.56L15.28 61.856V66H13.68ZM15.28 62.016L14.56 61.216H18C19.024 61.216 19.7973 60.9973 20.32 60.56C20.8533 60.1227 21.12 59.504 21.12 58.704C21.12 57.904 20.8533 57.2853 20.32 56.848C19.7973 56.4107 19.024 56.192 18 56.192H14.56L15.28 55.392V62.016ZM24.7704 66V57.52H26.2424V59.824L26.0984 59.248C26.333 58.6613 26.7277 58.2133 27.2824 57.904C27.837 57.5947 28.5197 57.44 29.3304 57.44V58.928C29.2664 58.9173 29.2024 58.912 29.1384 58.912C29.085 58.912 29.0317 58.912 28.9784 58.912C28.157 58.912 27.5064 59.1573 27.0264 59.648C26.5464 60.1387 26.3064 60.848 26.3064 61.776V66H24.7704ZM34.8574 66.096C34.004 66.096 33.2467 65.9093 32.5854 65.536C31.924 65.1627 31.4014 64.6507 31.0174 64C30.6334 63.3387 30.4414 62.592 30.4414 61.76C30.4414 60.9173 30.6334 60.1707 31.0174 59.52C31.4014 58.8693 31.924 58.3627 32.5854 58C33.2467 57.6267 34.004 57.44 34.8574 57.44C35.7 57.44 36.452 57.6267 37.1134 58C37.7854 58.3627 38.308 58.8693 38.6814 59.52C39.0654 60.16 39.2574 60.9067 39.2574 61.76C39.2574 62.6027 39.0654 63.3493 38.6814 64C38.308 64.6507 37.7854 65.1627 37.1134 65.536C36.452 65.9093 35.7 66.096 34.8574 66.096ZM34.8574 64.752C35.4014 64.752 35.8867 64.6293 36.3134 64.384C36.7507 64.1387 37.092 63.792 37.3374 63.344C37.5827 62.8853 37.7054 62.3573 37.7054 61.76C37.7054 61.152 37.5827 60.6293 37.3374 60.192C37.092 59.744 36.7507 59.3973 36.3134 59.152C35.8867 58.9067 35.4014 58.784 34.8574 58.784C34.3134 58.784 33.828 58.9067 33.4014 59.152C32.9747 59.3973 32.6334 59.744 32.3774 60.192C32.1214 60.6293 31.9934 61.152 31.9934 61.76C31.9934 62.3573 32.1214 62.8853 32.3774 63.344C32.6334 63.792 32.9747 64.1387 33.4014 64.384C33.828 64.6293 34.3134 64.752 34.8574 64.752ZM40.3736 69.2C40.0216 69.2 39.6856 69.1573 39.3656 69.072C39.035 68.9867 38.7576 68.8587 38.5336 68.688L39.0296 67.504C39.3496 67.7707 39.7656 67.904 40.2776 67.904C40.683 67.904 40.9923 67.776 41.2056 67.52C41.4296 67.2747 41.5416 66.9067 41.5416 66.416V57.52H43.0776V66.384C43.0776 67.248 42.843 67.9307 42.3736 68.432C41.915 68.944 41.2483 69.2 40.3736 69.2ZM42.3096 55.888C42.011 55.888 41.7603 55.792 41.5576 55.6C41.3656 55.408 41.2696 55.1733 41.2696 54.896C41.2696 54.608 41.3656 54.368 41.5576 54.176C41.7603 53.984 42.011 53.888 42.3096 53.888C42.6083 53.888 42.8536 53.984 43.0456 54.176C43.2483 54.3573 43.3496 54.5867 43.3496 54.864C43.3496 55.152 43.2536 55.3973 43.0616 55.6C42.8696 55.792 42.619 55.888 42.3096 55.888ZM49.8645 66.096C48.9578 66.096 48.1578 65.9093 47.4645 65.536C46.7818 65.1627 46.2485 64.6507 45.8645 64C45.4912 63.3493 45.3045 62.6027 45.3045 61.76C45.3045 60.9173 45.4858 60.1707 45.8485 59.52C46.2218 58.8693 46.7285 58.3627 47.3685 58C48.0192 57.6267 48.7498 57.44 49.5605 57.44C50.3818 57.44 51.1072 57.6213 51.7365 57.984C52.3658 58.3467 52.8565 58.8587 53.2085 59.52C53.5712 60.1707 53.7525 60.9333 53.7525 61.808C53.7525 61.872 53.7472 61.9467 53.7365 62.032C53.7365 62.1173 53.7312 62.1973 53.7205 62.272H46.5045V61.168H52.9205L52.2965 61.552C52.3072 61.008 52.1952 60.5227 51.9605 60.096C51.7258 59.6693 51.4005 59.3387 50.9845 59.104C50.5792 58.8587 50.1045 58.736 49.5605 58.736C49.0272 58.736 48.5525 58.8587 48.1365 59.104C47.7205 59.3387 47.3952 59.6747 47.1605 60.112C46.9258 60.5387 46.8085 61.0293 46.8085 61.584V61.84C46.8085 62.4053 46.9365 62.912 47.1925 63.36C47.4592 63.7973 47.8272 64.1387 48.2965 64.384C48.7658 64.6293 49.3045 64.752 49.9125 64.752C50.4138 64.752 50.8672 64.6667 51.2725 64.496C51.6885 64.3253 52.0512 64.0693 52.3605 63.728L53.2085 64.72C52.8245 65.168 52.3445 65.5093 51.7685 65.744C51.2032 65.9787 50.5685 66.096 49.8645 66.096ZM59.6614 66.096C58.7974 66.096 58.024 65.9093 57.3414 65.536C56.6694 65.1627 56.1414 64.6507 55.7574 64C55.3734 63.3493 55.1814 62.6027 55.1814 61.76C55.1814 60.9173 55.3734 60.1707 55.7574 59.52C56.1414 58.8693 56.6694 58.3627 57.3414 58C58.024 57.6267 58.7974 57.44 59.6614 57.44C60.4294 57.44 61.112 57.5947 61.7094 57.904C62.3174 58.2027 62.7867 58.6507 63.1174 59.248L61.9494 60C61.672 59.584 61.3307 59.28 60.9254 59.088C60.5307 58.8853 60.104 58.784 59.6454 58.784C59.0907 58.784 58.5947 58.9067 58.1574 59.152C57.72 59.3973 57.3734 59.744 57.1174 60.192C56.8614 60.6293 56.7334 61.152 56.7334 61.76C56.7334 62.368 56.8614 62.896 57.1174 63.344C57.3734 63.792 57.72 64.1387 58.1574 64.384C58.5947 64.6293 59.0907 64.752 59.6454 64.752C60.104 64.752 60.5307 64.656 60.9254 64.464C61.3307 64.2613 61.672 63.952 61.9494 63.536L63.1174 64.272C62.7867 64.8587 62.3174 65.312 61.7094 65.632C61.112 65.9413 60.4294 66.096 59.6614 66.096ZM68.2074 66.096C67.354 66.096 66.6927 65.8667 66.2234 65.408C65.754 64.9493 65.5194 64.2933 65.5194 63.44V55.664H67.0554V63.376C67.0554 63.8347 67.1674 64.1867 67.3914 64.432C67.626 64.6773 67.9567 64.8 68.3834 64.8C68.8634 64.8 69.2634 64.6667 69.5834 64.4L70.0634 65.504C69.8287 65.7067 69.546 65.856 69.2154 65.952C68.8954 66.048 68.5594 66.096 68.2074 66.096ZM64.0794 58.784V57.52H69.4874V58.784H64.0794Z" fill="#C3C5C8"/>
</svg>
