<svg width="98" height="81" viewBox="0 0 98 81" fill="none" xmlns="http://www.w3.org/2000/svg">
<g clip-path="url(#clip0_4971_123)">
<path d="M45.25 37.3125C45.25 37.6833 45.14 38.0459 44.934 38.3542C44.728 38.6625 44.4351 38.9029 44.0925 39.0448C43.7499 39.1867 43.3729 39.2238 43.0092 39.1515C42.6455 39.0791 42.3114 38.9005 42.0492 38.6383C41.787 38.3761 41.6084 38.042 41.536 37.6783C41.4637 37.3146 41.5008 36.9376 41.6427 36.595C41.7846 36.2524 42.025 35.9595 42.3333 35.7535C42.6416 35.5475 43.0042 35.4375 43.375 35.4375C43.8723 35.4375 44.3492 35.635 44.7008 35.9867C45.0525 36.3383 45.25 36.8152 45.25 37.3125ZM55.5625 35.4375C55.1917 35.4375 54.8291 35.5475 54.5208 35.7535C54.2125 35.9595 53.9721 36.2524 53.8302 36.595C53.6883 36.9376 53.6512 37.3146 53.7235 37.6783C53.7959 38.042 53.9745 38.3761 54.2367 38.6383C54.4989 38.9005 54.833 39.0791 55.1967 39.1515C55.5604 39.2238 55.9374 39.1867 56.28 39.0448C56.6226 38.9029 56.9155 38.6625 57.1215 38.3542C57.3275 38.0459 57.4375 37.6833 57.4375 37.3125C57.4375 36.8152 57.24 36.3383 56.8883 35.9867C56.5367 35.635 56.0598 35.4375 55.5625 35.4375ZM61.0047 19.8809C60.9175 19.7627 60.8038 19.6667 60.6727 19.6005C60.5416 19.5344 60.3968 19.4999 60.25 19.5H39.6625L38.7121 16.1719C38.5987 15.7809 38.3617 15.4371 38.0366 15.1921C37.7114 14.947 37.3157 14.8139 36.9086 14.8125H34.9375C34.6889 14.8125 34.4504 14.9113 34.2746 15.0871C34.0988 15.2629 34 15.5014 34 15.75C34 15.9986 34.0988 16.2371 34.2746 16.4129C34.4504 16.5887 34.6889 16.6875 34.9375 16.6875H36.9086L41.1484 31.5223C41.3181 32.1088 41.6732 32.6246 42.1606 32.9924C42.648 33.3602 43.2414 33.5602 43.852 33.5625H55.1148C55.7168 33.5646 56.3034 33.3726 56.7877 33.015C57.2719 32.6574 57.628 32.1533 57.8031 31.5773L61.1465 20.7129C61.1895 20.5728 61.1991 20.4245 61.1745 20.28C61.1499 20.1355 61.0917 19.9988 61.0047 19.8809Z" fill="#1DBF73"/>
</g>
<path d="M11.92 65L16.96 53.8H19.008L24.064 65H21.888L17.552 54.904H18.384L14.064 65H11.92ZM14.24 62.408L14.8 60.776H20.848L21.408 62.408H14.24ZM28.8361 65.112C28.1108 65.112 27.4708 64.9787 26.9161 64.712C26.3615 64.4347 25.9295 64.0187 25.6201 63.464C25.3108 62.8987 25.1561 62.1893 25.1561 61.336V56.456H27.1561V61.064C27.1561 61.832 27.3268 62.408 27.6681 62.792C28.0201 63.1653 28.5161 63.352 29.1561 63.352C29.6255 63.352 30.0308 63.256 30.3721 63.064C30.7241 62.872 30.9961 62.584 31.1881 62.2C31.3908 61.816 31.4921 61.3413 31.4921 60.776V56.456H33.4921V65H31.5881V62.696L31.9241 63.4C31.6361 63.9547 31.2148 64.3813 30.6601 64.68C30.1055 64.968 29.4975 65.112 28.8361 65.112ZM40.1108 65.112C39.2148 65.112 38.4148 64.9253 37.7107 64.552C37.0174 64.168 36.4734 63.6453 36.0787 62.984C35.6841 62.3227 35.4867 61.5707 35.4867 60.728C35.4867 59.8747 35.6841 59.1227 36.0787 58.472C36.4734 57.8107 37.0174 57.2933 37.7107 56.92C38.4148 56.5467 39.2148 56.36 40.1108 56.36C40.9428 56.36 41.6734 56.5307 42.3028 56.872C42.9428 57.2027 43.4281 57.6933 43.7587 58.344L42.2228 59.24C41.9668 58.8347 41.6521 58.536 41.2787 58.344C40.9161 58.152 40.5214 58.056 40.0947 58.056C39.6041 58.056 39.1614 58.1627 38.7668 58.376C38.3721 58.5893 38.0628 58.8987 37.8387 59.304C37.6147 59.6987 37.5027 60.1733 37.5027 60.728C37.5027 61.2827 37.6147 61.7627 37.8387 62.168C38.0628 62.5627 38.3721 62.8667 38.7668 63.08C39.1614 63.2933 39.6041 63.4 40.0947 63.4C40.5214 63.4 40.9161 63.304 41.2787 63.112C41.6521 62.92 41.9668 62.6213 42.2228 62.216L43.7587 63.112C43.4281 63.752 42.9428 64.248 42.3028 64.6C41.6734 64.9413 40.9428 65.112 40.1108 65.112ZM48.893 65.112C47.9543 65.112 47.229 64.872 46.717 64.392C46.205 63.9013 45.949 63.1813 45.949 62.232V54.568H47.949V62.184C47.949 62.5893 48.0503 62.904 48.253 63.128C48.4663 63.352 48.7597 63.464 49.133 63.464C49.581 63.464 49.9543 63.3467 50.253 63.112L50.813 64.536C50.5783 64.728 50.2903 64.872 49.949 64.968C49.6077 65.064 49.2557 65.112 48.893 65.112ZM44.541 58.12V56.52H50.237V58.12H44.541ZM52.5382 65V56.456H54.5382V65H52.5382ZM53.5462 55.048C53.1729 55.048 52.8636 54.9307 52.6182 54.696C52.3836 54.4613 52.2662 54.1787 52.2662 53.848C52.2662 53.5067 52.3836 53.224 52.6182 53C52.8636 52.7653 53.1729 52.648 53.5462 52.648C53.9196 52.648 54.2236 52.76 54.4582 52.984C54.7036 53.1973 54.8262 53.4693 54.8262 53.8C54.8262 54.152 54.7089 54.4507 54.4742 54.696C54.2396 54.9307 53.9302 55.048 53.5462 55.048ZM61.0833 65.112C60.2086 65.112 59.4299 64.9253 58.7473 64.552C58.0646 64.168 57.5259 63.6453 57.1313 62.984C56.7366 62.3227 56.5393 61.5707 56.5393 60.728C56.5393 59.8747 56.7366 59.1227 57.1313 58.472C57.5259 57.8107 58.0646 57.2933 58.7473 56.92C59.4299 56.5467 60.2086 56.36 61.0833 56.36C61.9686 56.36 62.7526 56.5467 63.4353 56.92C64.1286 57.2933 64.6673 57.8053 65.0513 58.456C65.4459 59.1067 65.6433 59.864 65.6433 60.728C65.6433 61.5707 65.4459 62.3227 65.0513 62.984C64.6673 63.6453 64.1286 64.168 63.4353 64.552C62.7526 64.9253 61.9686 65.112 61.0833 65.112ZM61.0833 63.4C61.5739 63.4 62.0113 63.2933 62.3953 63.08C62.7793 62.8667 63.0779 62.5573 63.2913 62.152C63.5153 61.7467 63.6273 61.272 63.6273 60.728C63.6273 60.1733 63.5153 59.6987 63.2913 59.304C63.0779 58.8987 62.7793 58.5893 62.3953 58.376C62.0113 58.1627 61.5793 58.056 61.0993 58.056C60.6086 58.056 60.1713 58.1627 59.7873 58.376C59.4139 58.5893 59.1153 58.8987 58.8913 59.304C58.6673 59.6987 58.5553 60.1733 58.5553 60.728C58.5553 61.272 58.6673 61.7467 58.8913 62.152C59.1153 62.5573 59.4139 62.8667 59.7873 63.08C60.1713 63.2933 60.6033 63.4 61.0833 63.4ZM72.4837 56.36C73.1664 56.36 73.7744 56.4933 74.3077 56.76C74.8517 57.0267 75.2784 57.4373 75.5878 57.992C75.8971 58.536 76.0518 59.24 76.0518 60.104V65H74.0517V60.36C74.0517 59.6027 73.8704 59.0373 73.5078 58.664C73.1557 58.2907 72.6597 58.104 72.0197 58.104C71.5504 58.104 71.1344 58.2 70.7717 58.392C70.4091 58.584 70.1264 58.872 69.9237 59.256C69.7317 59.6293 69.6357 60.104 69.6357 60.68V65H67.6357V56.456H69.5397V58.76L69.2037 58.056C69.5024 57.512 69.9344 57.096 70.4997 56.808C71.0757 56.5093 71.7371 56.36 72.4837 56.36ZM81.3089 65.112C80.5942 65.112 79.9062 65.0213 79.2449 64.84C78.5942 64.648 78.0769 64.4187 77.6929 64.152L78.4609 62.632C78.8449 62.8773 79.3035 63.08 79.8369 63.24C80.3702 63.4 80.9035 63.48 81.4369 63.48C82.0662 63.48 82.5195 63.3947 82.7969 63.224C83.0849 63.0533 83.2289 62.824 83.2289 62.536C83.2289 62.3013 83.1329 62.1253 82.9409 62.008C82.7489 61.88 82.4982 61.784 82.1889 61.72C81.8795 61.656 81.5329 61.5973 81.1489 61.544C80.7755 61.4907 80.3969 61.4213 80.0129 61.336C79.6395 61.24 79.2982 61.1067 78.9889 60.936C78.6795 60.7547 78.4289 60.5147 78.2369 60.216C78.0449 59.9173 77.9489 59.5227 77.9489 59.032C77.9489 58.488 78.1035 58.0187 78.4129 57.624C78.7222 57.2187 79.1542 56.9093 79.7089 56.696C80.2742 56.472 80.9409 56.36 81.7089 56.36C82.2849 56.36 82.8662 56.424 83.4529 56.552C84.0395 56.68 84.5249 56.8613 84.9089 57.096L84.1409 58.616C83.7355 58.3707 83.3249 58.2053 82.9089 58.12C82.5035 58.024 82.0982 57.976 81.6929 57.976C81.0849 57.976 80.6315 58.0667 80.3329 58.248C80.0449 58.4293 79.9009 58.6587 79.9009 58.936C79.9009 59.192 79.9969 59.384 80.1889 59.512C80.3809 59.64 80.6315 59.7413 80.9409 59.816C81.2502 59.8907 81.5915 59.9547 81.9649 60.008C82.3489 60.0507 82.7275 60.12 83.1009 60.216C83.4742 60.312 83.8155 60.4453 84.1249 60.616C84.4449 60.776 84.7009 61.0053 84.8929 61.304C85.0849 61.6027 85.1809 61.992 85.1809 62.472C85.1809 63.0053 85.0209 63.4693 84.7009 63.864C84.3915 64.2587 83.9489 64.568 83.3729 64.792C82.7969 65.0053 82.1089 65.112 81.3089 65.112Z" fill="#1DBF73"/>
<defs>
<clipPath id="clip0_4971_123">
<rect width="30" height="30" fill="white" transform="translate(34 12)"/>
</clipPath>
</defs>
</svg>
