<svg width="36" height="36" viewBox="0 0 36 36" fill="none" xmlns="http://www.w3.org/2000/svg">
<path d="M19.5231 17.9356C19.5231 18.2496 19.43 18.5566 19.2555 18.8177C19.081 19.0788 18.8331 19.2823 18.543 19.4024C18.2528 19.5226 17.9336 19.554 17.6256 19.4928C17.3176 19.4315 17.0347 19.2803 16.8127 19.0583C16.5907 18.8362 16.4394 18.5533 16.3782 18.2453C16.3169 17.9373 16.3484 17.6181 16.4685 17.328C16.5887 17.0379 16.7922 16.7899 17.0533 16.6155C17.3144 16.441 17.6214 16.3479 17.9354 16.3479C18.3565 16.3479 18.7603 16.5152 19.058 16.8129C19.3558 17.1107 19.5231 17.5145 19.5231 17.9356ZM12.1138 16.3479C11.7998 16.3479 11.4928 16.441 11.2317 16.6155C10.9706 16.7899 10.7671 17.0379 10.647 17.328C10.5268 17.6181 10.4953 17.9373 10.5566 18.2453C10.6179 18.5533 10.7691 18.8362 10.9911 19.0583C11.2132 19.2803 11.4961 19.4315 11.8041 19.4928C12.112 19.554 12.4313 19.5226 12.7214 19.4024C13.0115 19.2823 13.2595 19.0788 13.4339 18.8177C13.6084 18.5566 13.7015 18.2496 13.7015 17.9356C13.7015 17.5145 13.5342 17.1107 13.2365 16.8129C12.9387 16.5152 12.5349 16.3479 12.1138 16.3479ZM23.7569 16.3479C23.4429 16.3479 23.136 16.441 22.8749 16.6155C22.6138 16.7899 22.4103 17.0379 22.2901 17.328C22.1699 17.6181 22.1385 17.9373 22.1998 18.2453C22.261 18.5533 22.4122 18.8362 22.6343 19.0583C22.8563 19.2803 23.1392 19.4315 23.4472 19.4928C23.7552 19.554 24.0744 19.5226 24.3645 19.4024C24.6546 19.2823 24.9026 19.0788 25.0771 18.8177C25.2515 18.5566 25.3446 18.2496 25.3446 17.9356C25.3446 17.5145 25.1774 17.1107 24.8796 16.8129C24.5819 16.5152 24.178 16.3479 23.7569 16.3479ZM31.6955 17.9356C31.696 20.3112 31.0814 22.6465 29.9116 24.7142C28.7418 26.7819 27.0567 28.5115 25.0201 29.7346C22.9835 30.9578 20.665 31.6328 18.2901 31.6941C15.9153 31.7553 13.565 31.2007 11.4681 30.0842L6.96303 31.5858C6.59004 31.7102 6.18977 31.7283 5.80709 31.638C5.42441 31.5477 5.07444 31.3526 4.79642 31.0745C4.51839 30.7965 4.32329 30.4465 4.23298 30.0639C4.14267 29.6812 4.16072 29.2809 4.28511 28.9079L5.78681 24.4028C4.80528 22.5574 4.25706 20.5127 4.18376 18.4238C4.11046 16.3349 4.51401 14.2567 5.36378 12.3471C6.21355 10.4374 7.4872 8.74643 9.08806 7.4025C10.6889 6.05857 12.5749 5.09701 14.6029 4.59079C16.6308 4.08458 18.7475 4.04702 20.7921 4.48097C22.8368 4.91491 24.7557 5.80896 26.4032 7.09525C28.0508 8.38154 29.3836 10.0263 30.3006 11.9046C31.2176 13.7829 31.6946 15.8454 31.6955 17.9356ZM29.5785 17.9356C29.578 16.1496 29.1666 14.3876 28.3762 12.7861C27.5858 11.1845 26.4375 9.78623 25.0202 8.69944C23.603 7.61266 21.9547 6.86649 20.2028 6.51867C18.451 6.17086 16.6427 6.23071 14.9177 6.6936C13.1928 7.15649 11.5974 8.01002 10.2551 9.18814C8.91275 10.3663 7.85945 11.8374 7.17666 13.4877C6.49387 15.1381 6.1999 16.9233 6.31749 18.7055C6.43508 20.4876 6.96108 22.2188 7.85479 23.7651C7.9298 23.8949 7.97637 24.0392 7.99143 24.1884C8.00648 24.3375 7.98967 24.4882 7.94211 24.6304L6.29223 29.5787L11.2406 27.9288C11.3483 27.8921 11.4614 27.8733 11.5753 27.8733C11.7612 27.8736 11.9437 27.9229 12.1045 28.0162C13.8746 29.0403 15.8831 29.5801 17.928 29.5814C19.973 29.5827 21.9822 29.0454 23.7535 28.0235C25.5248 27.0017 26.9957 25.5313 28.0183 23.7604C29.0409 21.9895 29.579 19.9805 29.5785 17.9356Z" fill="#7A7879"/>
<circle cx="25.2001" cy="10.8" r="9.6" fill="#1DBF73"/>
<path d="M22.2496 13.5999V6.99985L22.6796 7.46985H20.6696V6.59985H23.2396V13.5999H22.2496ZM27.6808 13.6799C27.1342 13.6799 26.6442 13.5399 26.2108 13.2599C25.7842 12.9799 25.4442 12.5732 25.1908 12.0399C24.9442 11.5065 24.8208 10.8599 24.8208 10.0999C24.8208 9.33985 24.9442 8.69319 25.1908 8.15985C25.4442 7.62652 25.7842 7.21985 26.2108 6.93985C26.6442 6.65985 27.1342 6.51985 27.6808 6.51985C28.2208 6.51985 28.7075 6.65985 29.1408 6.93985C29.5742 7.21985 29.9142 7.62652 30.1608 8.15985C30.4075 8.69319 30.5308 9.33985 30.5308 10.0999C30.5308 10.8599 30.4075 11.5065 30.1608 12.0399C29.9142 12.5732 29.5742 12.9799 29.1408 13.2599C28.7075 13.5399 28.2208 13.6799 27.6808 13.6799ZM27.6808 12.7899C28.0475 12.7899 28.3675 12.6899 28.6408 12.4899C28.9208 12.2899 29.1375 11.9899 29.2908 11.5899C29.4508 11.1899 29.5308 10.6932 29.5308 10.0999C29.5308 9.50652 29.4508 9.00985 29.2908 8.60985C29.1375 8.20985 28.9208 7.90985 28.6408 7.70985C28.3675 7.50985 28.0475 7.40985 27.6808 7.40985C27.3142 7.40985 26.9908 7.50985 26.7108 7.70985C26.4308 7.90985 26.2108 8.20985 26.0508 8.60985C25.8975 9.00985 25.8208 9.50652 25.8208 10.0999C25.8208 10.6932 25.8975 11.1899 26.0508 11.5899C26.2108 11.9899 26.4308 12.2899 26.7108 12.4899C26.9908 12.6899 27.3142 12.7899 27.6808 12.7899Z" fill="white"/>
</svg>
