<svg width="79" height="82" viewBox="0 0 79 82" fill="none" xmlns="http://www.w3.org/2000/svg">
<path d="M49.8125 21.375H46.0625V17.625C46.0625 17.1277 45.865 16.6508 45.5133 16.2992C45.1617 15.9475 44.6848 15.75 44.1875 15.75H29.1875C28.6902 15.75 28.2133 15.9475 27.8617 16.2992C27.51 16.6508 27.3125 17.1277 27.3125 17.625V32.625C27.3131 32.8014 27.3633 32.974 27.4576 33.1231C27.5519 33.2722 27.6863 33.3916 27.8454 33.4678C28.0045 33.5439 28.1818 33.5736 28.357 33.5534C28.5323 33.5333 28.6983 33.4641 28.8359 33.3539L32.9375 30.0469V33.5625C32.9375 34.0598 33.135 34.5367 33.4867 34.8883C33.8383 35.24 34.3152 35.4375 34.8125 35.4375H45.7801L50.1641 38.9789C50.3299 39.1131 50.5366 39.1867 50.75 39.1875C50.9986 39.1875 51.2371 39.0887 51.4129 38.9129C51.5887 38.7371 51.6875 38.4986 51.6875 38.25V23.25C51.6875 22.7527 51.49 22.2758 51.1383 21.9242C50.7867 21.5725 50.3098 21.375 49.8125 21.375ZM32.2988 28.1461L29.1875 30.6621V17.625H44.1875V27.9375H32.8883C32.6737 27.9375 32.4657 28.0112 32.2988 28.1461ZM49.8125 36.2871L46.7012 33.7711C46.5353 33.6369 46.3286 33.5633 46.1152 33.5625H34.8125V29.8125H44.1875C44.6848 29.8125 45.1617 29.615 45.5133 29.2633C45.865 28.9117 46.0625 28.4348 46.0625 27.9375V23.25H49.8125V36.2871Z" fill="#C3C5C8"/>
<path d="M15.12 60.096H20.896V61.472H15.12V60.096ZM15.28 66H13.68V54.8H21.584V56.192H15.28V66ZM27.0586 66.096C26.2053 66.096 25.448 65.9093 24.7866 65.536C24.1253 65.1627 23.6026 64.6507 23.2186 64C22.8346 63.3387 22.6426 62.592 22.6426 61.76C22.6426 60.9173 22.8346 60.1707 23.2186 59.52C23.6026 58.8693 24.1253 58.3627 24.7866 58C25.448 57.6267 26.2053 57.44 27.0586 57.44C27.9013 57.44 28.6533 57.6267 29.3146 58C29.9866 58.3627 30.5093 58.8693 30.8826 59.52C31.2666 60.16 31.4586 60.9067 31.4586 61.76C31.4586 62.6027 31.2666 63.3493 30.8826 64C30.5093 64.6507 29.9866 65.1627 29.3146 65.536C28.6533 65.9093 27.9013 66.096 27.0586 66.096ZM27.0586 64.752C27.6026 64.752 28.088 64.6293 28.5146 64.384C28.952 64.1387 29.2933 63.792 29.5386 63.344C29.784 62.8853 29.9066 62.3573 29.9066 61.76C29.9066 61.152 29.784 60.6293 29.5386 60.192C29.2933 59.744 28.952 59.3973 28.5146 59.152C28.088 58.9067 27.6026 58.784 27.0586 58.784C26.5146 58.784 26.0293 58.9067 25.6026 59.152C25.176 59.3973 24.8346 59.744 24.5786 60.192C24.3226 60.6293 24.1946 61.152 24.1946 61.76C24.1946 62.3573 24.3226 62.8853 24.5786 63.344C24.8346 63.792 25.176 64.1387 25.6026 64.384C26.0293 64.6293 26.5146 64.752 27.0586 64.752ZM33.6629 66V57.52H35.1349V59.824L34.9909 59.248C35.2255 58.6613 35.6202 58.2133 36.1749 57.904C36.7295 57.5947 37.4122 57.44 38.2229 57.44V58.928C38.1589 58.9173 38.0949 58.912 38.0309 58.912C37.9775 58.912 37.9242 58.912 37.8709 58.912C37.0495 58.912 36.3989 59.1573 35.9189 59.648C35.4389 60.1387 35.1989 60.848 35.1989 61.776V66H33.6629ZM43.8734 66.096C43.148 66.096 42.508 65.9627 41.9534 65.696C41.4094 65.4293 40.9827 65.024 40.6734 64.48C40.3747 63.9253 40.2254 63.232 40.2254 62.4V57.52H41.7614V62.224C41.7614 63.056 41.9587 63.68 42.3534 64.096C42.7587 64.512 43.324 64.72 44.0494 64.72C44.5827 64.72 45.0467 64.6133 45.4414 64.4C45.836 64.176 46.14 63.856 46.3534 63.44C46.5667 63.0133 46.6734 62.5013 46.6734 61.904V57.52H48.2094V66H46.7534V63.712L46.9934 64.32C46.716 64.8853 46.3 65.3227 45.7454 65.632C45.1907 65.9413 44.5667 66.096 43.8734 66.096ZM61.8215 57.44C62.5042 57.44 63.1068 57.5733 63.6295 57.84C64.1522 58.1067 64.5575 58.512 64.8455 59.056C65.1442 59.6 65.2935 60.288 65.2935 61.12V66H63.7575V61.296C63.7575 60.4747 63.5655 59.856 63.1815 59.44C62.7975 59.024 62.2588 58.816 61.5655 58.816C61.0535 58.816 60.6055 58.9227 60.2215 59.136C59.8375 59.3493 59.5388 59.664 59.3255 60.08C59.1228 60.496 59.0215 61.0133 59.0215 61.632V66H57.4855V61.296C57.4855 60.4747 57.2935 59.856 56.9095 59.44C56.5362 59.024 55.9975 58.816 55.2935 58.816C54.7922 58.816 54.3495 58.9227 53.9655 59.136C53.5815 59.3493 53.2828 59.664 53.0695 60.08C52.8562 60.496 52.7495 61.0133 52.7495 61.632V66H51.2135V57.52H52.6855V59.776L52.4455 59.2C52.7122 58.6453 53.1228 58.2133 53.6775 57.904C54.2322 57.5947 54.8775 57.44 55.6135 57.44C56.4242 57.44 57.1228 57.6427 57.7095 58.048C58.2962 58.4427 58.6802 59.0453 58.8615 59.856L58.2375 59.6C58.4935 58.9493 58.9415 58.4267 59.5815 58.032C60.2215 57.6373 60.9682 57.44 61.8215 57.44Z" fill="#C3C5C8"/>
</svg>
