<svg width="21" height="21" viewBox="0 0 21 21" fill="none" xmlns="http://www.w3.org/2000/svg">
<path d="M10.5 6.56248C9.72121 6.56248 8.95993 6.79342 8.31241 7.22607C7.6649 7.65873 7.16022 8.27368 6.8622 8.99317C6.56418 9.71265 6.4862 10.5044 6.63813 11.2682C6.79006 12.032 7.16507 12.7335 7.71574 13.2842C8.26641 13.8349 8.968 14.2099 9.7318 14.3618C10.4956 14.5138 11.2873 14.4358 12.0068 14.1378C12.7263 13.8397 13.3412 13.3351 13.7739 12.6875C14.2065 12.04 14.4375 11.2787 14.4375 10.5C14.4364 9.45603 14.0212 8.45514 13.283 7.71695C12.5448 6.97876 11.5439 6.56357 10.5 6.56248ZM10.5 13.125C9.9808 13.125 9.47328 12.971 9.0416 12.6826C8.60992 12.3942 8.27347 11.9842 8.07479 11.5045C7.87611 11.0249 7.82412 10.4971 7.92541 9.98787C8.0267 9.47867 8.2767 9.01094 8.64382 8.64383C9.01093 8.27672 9.47866 8.02671 9.98786 7.92542C10.4971 7.82414 11.0249 7.87612 11.5045 8.0748C11.9842 8.27348 12.3941 8.60993 12.6826 9.04161C12.971 9.47329 13.125 9.98081 13.125 10.5C13.125 11.1962 12.8484 11.8639 12.3561 12.3561C11.8638 12.8484 11.1962 13.125 10.5 13.125ZM19.5185 8.79455C19.5002 8.70214 19.4622 8.61475 19.4072 8.53831C19.3521 8.46188 19.2813 8.39819 19.1994 8.35159L16.7524 6.95705L16.7426 4.19916C16.7423 4.10418 16.7213 4.0104 16.6813 3.92429C16.6412 3.83818 16.5829 3.7618 16.5104 3.70041C15.6228 2.94958 14.6006 2.37419 13.4982 2.00483C13.4114 1.97544 13.3194 1.96457 13.2281 1.97291C13.1369 1.98124 13.0483 2.0086 12.9683 2.05323L10.5 3.43299L8.02919 2.05077C7.94909 2.00589 7.86046 1.97832 7.76904 1.96984C7.67762 1.96137 7.58544 1.97217 7.49845 2.00155C6.39689 2.37361 5.37588 2.95119 4.48954 3.7037C4.41717 3.76499 4.35893 3.84124 4.31886 3.9272C4.27878 4.01316 4.25781 4.10678 4.2574 4.20162L4.24509 6.96198L1.7981 8.35651C1.71623 8.40311 1.64536 8.4668 1.5903 8.54324C1.53524 8.61967 1.49728 8.70706 1.479 8.79948C1.25505 9.92485 1.25505 11.0833 1.479 12.2087C1.49728 12.3011 1.53524 12.3885 1.5903 12.4649C1.64536 12.5414 1.71623 12.6051 1.7981 12.6517L4.24509 14.0462L4.25493 16.8041C4.25523 16.8991 4.27614 16.9929 4.31622 17.079C4.3563 17.1651 4.4146 17.2415 4.48708 17.3028C5.37472 18.0537 6.3969 18.6291 7.49927 18.9984C7.58608 19.0278 7.67809 19.0387 7.76936 19.0303C7.86063 19.022 7.94914 18.9946 8.02919 18.95L10.5 17.567L12.9708 18.9492C13.0685 19.0037 13.1787 19.0319 13.2907 19.0312C13.3623 19.0312 13.4335 19.0196 13.5015 18.9968C14.6029 18.6252 15.6239 18.0482 16.5104 17.2963C16.5828 17.235 16.641 17.1587 16.6811 17.0728C16.7212 16.9868 16.7421 16.8932 16.7426 16.7983L16.7549 14.038L19.2018 12.6435C19.2837 12.5969 19.3546 12.5332 19.4096 12.4567C19.4647 12.3803 19.5027 12.2929 19.521 12.2005C19.7437 11.076 19.7428 9.9187 19.5185 8.79455ZM18.288 11.6583L15.9444 12.9913C15.8417 13.0497 15.7567 13.1347 15.6983 13.2374C15.6507 13.3194 15.6007 13.4064 15.5498 13.4884C15.4847 13.5918 15.45 13.7115 15.4497 13.8337L15.4374 16.4792C14.8075 16.9739 14.1057 17.3695 13.3563 17.6523L10.9922 16.3349C10.894 16.2806 10.7836 16.2523 10.6714 16.2528H10.6558C10.5566 16.2528 10.4565 16.2528 10.3572 16.2528C10.2398 16.2499 10.1238 16.2782 10.0209 16.3349L7.65513 17.6556C6.90414 17.375 6.20041 16.9813 5.56825 16.4883L5.55923 13.8469C5.55883 13.7244 5.52416 13.6045 5.45915 13.5007C5.40829 13.4187 5.35825 13.3366 5.3115 13.2497C5.25352 13.1454 5.16851 13.0587 5.0654 12.9987L2.71931 11.6624C2.5979 10.8944 2.5979 10.1121 2.71931 9.34416L5.05884 8.0087C5.16152 7.95031 5.24655 7.86529 5.30493 7.7626C5.35251 7.68057 5.40255 7.59362 5.45341 7.51159C5.51851 7.40814 5.55319 7.28846 5.55349 7.16623L5.56579 4.52073C6.19573 4.02603 6.89754 3.63046 7.64693 3.34768L10.0078 4.6651C10.1105 4.72206 10.2267 4.75038 10.3441 4.74713C10.4434 4.74713 10.5434 4.74713 10.6427 4.74713C10.7601 4.75007 10.8762 4.72176 10.979 4.6651L13.3448 3.3444C14.0958 3.62501 14.7995 4.01864 15.4317 4.5117L15.4407 7.15311C15.4411 7.27558 15.4758 7.39549 15.5408 7.49928C15.5917 7.58131 15.6417 7.66334 15.6884 7.7503C15.7464 7.85457 15.8314 7.94128 15.9345 8.00131L18.2806 9.3376C18.4037 10.1062 18.405 10.8893 18.2847 11.6583H18.288Z" fill="#696F79"/>
</svg>
