<svg width="103" height="82" viewBox="0 0 103 82" fill="none" xmlns="http://www.w3.org/2000/svg">
<path d="M61.8125 16.6875H41.1875C40.6902 16.6875 40.2133 16.885 39.8617 17.2367C39.51 17.5883 39.3125 18.0652 39.3125 18.5625V35.4375C39.3125 35.9348 39.51 36.4117 39.8617 36.7633C40.2133 37.115 40.6902 37.3125 41.1875 37.3125H61.8125C62.3098 37.3125 62.7867 37.115 63.1383 36.7633C63.49 36.4117 63.6875 35.9348 63.6875 35.4375V18.5625C63.6875 18.0652 63.49 17.5883 63.1383 17.2367C62.7867 16.885 62.3098 16.6875 61.8125 16.6875ZM61.8125 18.5625V30.6035L58.7574 27.5496C58.5833 27.3755 58.3766 27.2373 58.1491 27.143C57.9216 27.0488 57.6777 27.0003 57.4314 27.0003C57.1852 27.0003 56.9413 27.0488 56.7138 27.143C56.4863 27.2373 56.2796 27.3755 56.1055 27.5496L53.7617 29.8934L48.6055 24.7371C48.2539 24.3857 47.7771 24.1884 47.2801 24.1884C46.783 24.1884 46.3063 24.3857 45.9547 24.7371L41.1875 29.5043V18.5625H61.8125ZM41.1875 32.1562L47.2812 26.0625L56.6562 35.4375H41.1875V32.1562ZM61.8125 35.4375H59.3082L55.0895 31.2188L57.4332 28.875L61.8125 33.2555V35.4375ZM53.375 23.7188C53.375 23.4406 53.4575 23.1687 53.612 22.9375C53.7665 22.7062 53.9861 22.526 54.2431 22.4195C54.5001 22.3131 54.7828 22.2853 55.0556 22.3395C55.3284 22.3938 55.579 22.5277 55.7756 22.7244C55.9723 22.921 56.1062 23.1716 56.1605 23.4444C56.2147 23.7172 56.1869 23.9999 56.0805 24.2569C55.974 24.5139 55.7938 24.7335 55.5625 24.888C55.3313 25.0425 55.0594 25.125 54.7812 25.125C54.4083 25.125 54.0506 24.9768 53.7869 24.7131C53.5232 24.4494 53.375 24.0917 53.375 23.7188Z" fill="#C3C5C8"/>
<path d="M13.68 66V54.8H18.048C19.0293 54.8 19.8667 54.9547 20.56 55.264C21.2533 55.5733 21.7867 56.0213 22.16 56.608C22.5333 57.1947 22.72 57.8933 22.72 58.704C22.72 59.5147 22.5333 60.2133 22.16 60.8C21.7867 61.376 21.2533 61.824 20.56 62.144C19.8667 62.4533 19.0293 62.608 18.048 62.608H14.56L15.28 61.856V66H13.68ZM15.28 62.016L14.56 61.216H18C19.024 61.216 19.7973 60.9973 20.32 60.56C20.8533 60.1227 21.12 59.504 21.12 58.704C21.12 57.904 20.8533 57.2853 20.32 56.848C19.7973 56.4107 19.024 56.192 18 56.192H14.56L15.28 55.392V62.016ZM28.5274 66.096C27.674 66.096 26.9167 65.9093 26.2554 65.536C25.594 65.1627 25.0714 64.6507 24.6874 64C24.3034 63.3387 24.1114 62.592 24.1114 61.76C24.1114 60.9173 24.3034 60.1707 24.6874 59.52C25.0714 58.8693 25.594 58.3627 26.2554 58C26.9167 57.6267 27.674 57.44 28.5274 57.44C29.37 57.44 30.122 57.6267 30.7834 58C31.4554 58.3627 31.978 58.8693 32.3514 59.52C32.7354 60.16 32.9274 60.9067 32.9274 61.76C32.9274 62.6027 32.7354 63.3493 32.3514 64C31.978 64.6507 31.4554 65.1627 30.7834 65.536C30.122 65.9093 29.37 66.096 28.5274 66.096ZM28.5274 64.752C29.0714 64.752 29.5567 64.6293 29.9834 64.384C30.4207 64.1387 30.762 63.792 31.0074 63.344C31.2527 62.8853 31.3754 62.3573 31.3754 61.76C31.3754 61.152 31.2527 60.6293 31.0074 60.192C30.762 59.744 30.4207 59.3973 29.9834 59.152C29.5567 58.9067 29.0714 58.784 28.5274 58.784C27.9834 58.784 27.498 58.9067 27.0714 59.152C26.6447 59.3973 26.3034 59.744 26.0474 60.192C25.7914 60.6293 25.6634 61.152 25.6634 61.76C25.6634 62.3573 25.7914 62.8853 26.0474 63.344C26.3034 63.792 26.6447 64.1387 27.0714 64.384C27.498 64.6293 27.9834 64.752 28.5274 64.752ZM35.1316 66V57.52H36.6036V59.824L36.4596 59.248C36.6943 58.6613 37.089 58.2133 37.6436 57.904C38.1983 57.5947 38.881 57.44 39.6916 57.44V58.928C39.6276 58.9173 39.5636 58.912 39.4996 58.912C39.4463 58.912 39.393 58.912 39.3396 58.912C38.5183 58.912 37.8676 59.1573 37.3876 59.648C36.9076 60.1387 36.6676 60.848 36.6676 61.776V66H35.1316ZM44.9205 66.096C44.0672 66.096 43.4058 65.8667 42.9365 65.408C42.4672 64.9493 42.2325 64.2933 42.2325 63.44V55.664H43.7685V63.376C43.7685 63.8347 43.8805 64.1867 44.1045 64.432C44.3392 64.6773 44.6698 64.8 45.0965 64.8C45.5765 64.8 45.9765 64.6667 46.2965 64.4L46.7765 65.504C46.5418 65.7067 46.2592 65.856 45.9285 65.952C45.6085 66.048 45.2725 66.096 44.9205 66.096ZM40.7925 58.784V57.52H46.2005V58.784H40.7925ZM48.9375 66V56.768C48.9375 55.936 49.1775 55.2747 49.6575 54.784C50.1482 54.2827 50.8415 54.032 51.7375 54.032C52.0682 54.032 52.3828 54.0747 52.6815 54.16C52.9908 54.2347 53.2522 54.3573 53.4655 54.528L53.0015 55.696C52.8415 55.568 52.6602 55.472 52.4575 55.408C52.2548 55.3333 52.0415 55.296 51.8175 55.296C51.3695 55.296 51.0282 55.424 50.7935 55.68C50.5588 55.9253 50.4415 56.2933 50.4415 56.784V57.92L50.4735 58.624V66H48.9375ZM47.4975 58.784V57.52H52.9055V58.784H47.4975ZM57.9411 66.096C57.0878 66.096 56.3305 65.9093 55.6691 65.536C55.0078 65.1627 54.4851 64.6507 54.1011 64C53.7171 63.3387 53.5251 62.592 53.5251 61.76C53.5251 60.9173 53.7171 60.1707 54.1011 59.52C54.4851 58.8693 55.0078 58.3627 55.6691 58C56.3305 57.6267 57.0878 57.44 57.9411 57.44C58.7838 57.44 59.5358 57.6267 60.1971 58C60.8691 58.3627 61.3918 58.8693 61.7651 59.52C62.1491 60.16 62.3411 60.9067 62.3411 61.76C62.3411 62.6027 62.1491 63.3493 61.7651 64C61.3918 64.6507 60.8691 65.1627 60.1971 65.536C59.5358 65.9093 58.7838 66.096 57.9411 66.096ZM57.9411 64.752C58.4851 64.752 58.9705 64.6293 59.3971 64.384C59.8345 64.1387 60.1758 63.792 60.4211 63.344C60.6665 62.8853 60.7891 62.3573 60.7891 61.76C60.7891 61.152 60.6665 60.6293 60.4211 60.192C60.1758 59.744 59.8345 59.3973 59.3971 59.152C58.9705 58.9067 58.4851 58.784 57.9411 58.784C57.3971 58.784 56.9118 58.9067 56.4851 59.152C56.0585 59.3973 55.7171 59.744 55.4611 60.192C55.2051 60.6293 55.0771 61.152 55.0771 61.76C55.0771 62.3573 55.2051 62.8853 55.4611 63.344C55.7171 63.792 56.0585 64.1387 56.4851 64.384C56.9118 64.6293 57.3971 64.752 57.9411 64.752ZM64.5454 66V54.128H66.0814V66H64.5454ZM69.0941 66V57.52H70.6301V66H69.0941ZM69.8621 55.888C69.5635 55.888 69.3128 55.792 69.1101 55.6C68.9181 55.408 68.8221 55.1733 68.8221 54.896C68.8221 54.608 68.9181 54.368 69.1101 54.176C69.3128 53.984 69.5635 53.888 69.8621 53.888C70.1608 53.888 70.4061 53.984 70.5981 54.176C70.8008 54.3573 70.9021 54.5867 70.9021 54.864C70.9021 55.152 70.8061 55.3973 70.6141 55.6C70.4221 55.792 70.1715 55.888 69.8621 55.888ZM77.2749 66.096C76.4215 66.096 75.6642 65.9093 75.0029 65.536C74.3415 65.1627 73.8189 64.6507 73.4349 64C73.0509 63.3387 72.8589 62.592 72.8589 61.76C72.8589 60.9173 73.0509 60.1707 73.4349 59.52C73.8189 58.8693 74.3415 58.3627 75.0029 58C75.6642 57.6267 76.4215 57.44 77.2749 57.44C78.1175 57.44 78.8695 57.6267 79.5309 58C80.2029 58.3627 80.7255 58.8693 81.0989 59.52C81.4829 60.16 81.6749 60.9067 81.6749 61.76C81.6749 62.6027 81.4829 63.3493 81.0989 64C80.7255 64.6507 80.2029 65.1627 79.5309 65.536C78.8695 65.9093 78.1175 66.096 77.2749 66.096ZM77.2749 64.752C77.8189 64.752 78.3042 64.6293 78.7309 64.384C79.1682 64.1387 79.5095 63.792 79.7549 63.344C80.0002 62.8853 80.1229 62.3573 80.1229 61.76C80.1229 61.152 80.0002 60.6293 79.7549 60.192C79.5095 59.744 79.1682 59.3973 78.7309 59.152C78.3042 58.9067 77.8189 58.784 77.2749 58.784C76.7309 58.784 76.2455 58.9067 75.8189 59.152C75.3922 59.3973 75.0509 59.744 74.7949 60.192C74.5389 60.6293 74.4109 61.152 74.4109 61.76C74.4109 62.3573 74.5389 62.8853 74.7949 63.344C75.0509 63.792 75.3922 64.1387 75.8189 64.384C76.2455 64.6293 76.7309 64.752 77.2749 64.752ZM86.3111 66.096C85.6071 66.096 84.9351 66 84.2951 65.808C83.6658 65.616 83.1698 65.3813 82.8071 65.104L83.4471 63.888C83.8098 64.1333 84.2578 64.3413 84.7911 64.512C85.3245 64.6827 85.8685 64.768 86.4231 64.768C87.1378 64.768 87.6498 64.6667 87.9591 64.464C88.2791 64.2613 88.4391 63.9787 88.4391 63.616C88.4391 63.3493 88.3431 63.1413 88.1511 62.992C87.9591 62.8427 87.7031 62.7307 87.3831 62.656C87.0738 62.5813 86.7271 62.5173 86.3431 62.464C85.9591 62.4 85.5751 62.3253 85.1911 62.24C84.8071 62.144 84.4551 62.016 84.1351 61.856C83.8151 61.6853 83.5591 61.456 83.3671 61.168C83.1751 60.8693 83.0791 60.4747 83.0791 59.984C83.0791 59.472 83.2231 59.024 83.5111 58.64C83.7991 58.256 84.2045 57.9627 84.7271 57.76C85.2605 57.5467 85.8898 57.44 86.6151 57.44C87.1698 57.44 87.7298 57.5093 88.2951 57.648C88.8711 57.776 89.3405 57.9627 89.7031 58.208L89.0471 59.424C88.6631 59.168 88.2631 58.992 87.8471 58.896C87.4311 58.8 87.0151 58.752 86.5991 58.752C85.9271 58.752 85.4258 58.864 85.0951 59.088C84.7645 59.3013 84.5991 59.5787 84.5991 59.92C84.5991 60.208 84.6951 60.432 84.8871 60.592C85.0898 60.7413 85.3458 60.8587 85.6551 60.944C85.9751 61.0293 86.3271 61.104 86.7111 61.168C87.0951 61.2213 87.4791 61.296 87.8631 61.392C88.2471 61.4773 88.5938 61.6 88.9031 61.76C89.2231 61.92 89.4791 62.144 89.6711 62.432C89.8738 62.72 89.9751 63.104 89.9751 63.584C89.9751 64.096 89.8258 64.5387 89.5271 64.912C89.2285 65.2853 88.8071 65.5787 88.2631 65.792C87.7191 65.9947 87.0685 66.096 86.3111 66.096Z" fill="#C3C5C8"/>
</svg>
