<svg width="24" height="23" viewBox="0 0 24 23" fill="none" xmlns="http://www.w3.org/2000/svg">
<path d="M23.6057 8.42486C23.4518 7.96001 23.0296 7.62985 22.5301 7.58589L15.7448 6.98425L13.0617 0.851691C12.8639 0.402254 12.4133 0.111328 11.9127 0.111328C11.4121 0.111328 10.9616 0.402254 10.7637 0.852742L8.08064 6.98425L1.29428 7.58589C0.795655 7.63091 0.374511 7.96001 0.219722 8.42486C0.0649316 8.88971 0.207884 9.39958 0.585083 9.72098L5.71395 14.1134L4.20157 20.619C4.0909 21.0974 4.28103 21.5918 4.68746 21.8787C4.90593 22.0329 5.16152 22.1113 5.41926 22.1113C5.64149 22.1113 5.86193 22.0528 6.05977 21.9372L11.9127 18.5213L17.7635 21.9372C18.1917 22.1887 18.7314 22.1658 19.1369 21.8787C19.5435 21.591 19.7335 21.0963 19.6228 20.619L18.1104 14.1134L23.2393 9.72186C23.6165 9.39958 23.7605 8.89059 23.6057 8.42486Z" fill="#FFCB31"/>
</svg>
