<svg width="120" height="82" viewBox="0 0 120 82" fill="none" xmlns="http://www.w3.org/2000/svg">
<path d="M73.6875 29.625C73.589 29.6988 73.4769 29.7526 73.3577 29.7831C73.2384 29.8137 73.1143 29.8205 72.9924 29.803C72.8705 29.7856 72.7533 29.7444 72.6473 29.6817C72.5414 29.6189 72.4489 29.536 72.375 29.4375C71.8099 28.6779 71.0744 28.0617 70.2277 27.6383C69.381 27.2149 68.4467 26.9963 67.5 27C67.3156 26.9999 67.1354 26.9456 66.9818 26.8437C66.8281 26.7417 66.708 26.5968 66.6363 26.4269C66.5877 26.3116 66.5626 26.1877 66.5626 26.0625C66.5626 25.9373 66.5877 25.8134 66.6363 25.698C66.708 25.5282 66.8281 25.3832 66.9818 25.2813C67.1354 25.1794 67.3156 25.125 67.5 25.125C68.026 25.1249 68.5415 24.9774 68.9878 24.699C69.4342 24.4207 69.7936 24.0228 70.0251 23.5505C70.2567 23.0782 70.3511 22.5504 70.2977 22.0271C70.2444 21.5038 70.0453 21.0059 69.7231 20.5901C69.401 20.1742 68.9687 19.8571 68.4753 19.6746C67.982 19.4921 67.4473 19.4517 66.9321 19.5578C66.4169 19.664 65.9418 19.9125 65.5608 20.2751C65.1798 20.6378 64.9081 21.1 64.7766 21.6093C64.7458 21.7286 64.6918 21.8406 64.6177 21.9391C64.5437 22.0375 64.4509 22.1203 64.3448 22.1829C64.2387 22.2455 64.1213 22.2865 63.9994 22.3037C63.8774 22.3209 63.7532 22.3139 63.634 22.2832C63.5147 22.2524 63.4027 22.1984 63.3043 22.1243C63.2059 22.0503 63.123 21.9575 63.0604 21.8514C62.9979 21.7453 62.9568 21.628 62.9396 21.506C62.9224 21.384 62.9294 21.2599 62.9601 21.1406C63.1427 20.4343 63.4875 19.7804 63.9672 19.2308C64.447 18.6813 65.0483 18.2513 65.7235 17.9751C66.3986 17.6988 67.1289 17.584 67.8563 17.6396C68.5836 17.6953 69.288 17.92 69.9132 18.2958C70.5384 18.6715 71.0674 19.188 71.4579 19.8042C71.8484 20.4204 72.0897 21.1192 72.1626 21.845C72.2355 22.5708 72.138 23.3036 71.8778 23.9851C71.6177 24.6667 71.2021 25.278 70.6641 25.7707C71.9388 26.3226 73.047 27.1985 73.8785 28.3113C73.9524 28.41 74.006 28.5224 74.0364 28.6419C74.0668 28.7614 74.0733 28.8857 74.0556 29.0078C74.0378 29.1298 73.9962 29.2471 73.933 29.353C73.8698 29.4589 73.7864 29.5513 73.6875 29.625ZM67.3734 36.8437C67.4413 36.9504 67.4868 37.0697 67.5073 37.1945C67.5278 37.3193 67.5229 37.4469 67.4928 37.5697C67.4628 37.6925 67.4081 37.808 67.3323 37.9091C67.2564 38.0103 67.1609 38.095 67.0514 38.1583C66.942 38.2216 66.8208 38.2621 66.6953 38.2773C66.5698 38.2926 66.4425 38.2823 66.3211 38.247C66.1996 38.2118 66.0866 38.1524 65.9887 38.0723C65.8908 37.9923 65.8102 37.8933 65.7516 37.7812C65.161 36.7812 64.3199 35.9525 63.3113 35.3768C62.3027 34.801 61.1614 34.4983 60 34.4983C58.8386 34.4983 57.6973 34.801 56.6887 35.3768C55.6801 35.9525 54.839 36.7812 54.2484 37.7812C54.1898 37.8933 54.1092 37.9923 54.0113 38.0723C53.9134 38.1524 53.8004 38.2118 53.6789 38.247C53.5575 38.2823 53.4302 38.2926 53.3047 38.2773C53.1792 38.2621 53.058 38.2216 52.9486 38.1583C52.8391 38.095 52.7436 38.0103 52.6677 37.9091C52.5918 37.808 52.5372 37.6925 52.5071 37.5697C52.4771 37.4469 52.4721 37.3193 52.4927 37.1945C52.5132 37.0697 52.5587 36.9504 52.6266 36.8437C53.5355 35.282 54.9213 34.0531 56.5805 33.3375C55.6469 32.6227 54.9607 31.6333 54.6185 30.5084C54.2763 29.3834 54.2952 28.1796 54.6725 27.0659C55.0499 25.9523 55.7668 24.985 56.7223 24.2998C57.6779 23.6147 58.8242 23.2462 60 23.2462C61.1758 23.2462 62.3221 23.6147 63.2776 24.2998C64.2332 24.985 64.9501 25.9523 65.3274 27.0659C65.7048 28.1796 65.7237 29.3834 65.3815 30.5084C65.0393 31.6333 64.3531 32.6227 63.4195 33.3375C65.0787 34.0531 66.4645 35.282 67.3734 36.8437ZM60 32.625C60.7417 32.625 61.4667 32.405 62.0834 31.993C62.7001 31.5809 63.1807 30.9953 63.4645 30.31C63.7484 29.6248 63.8226 28.8708 63.6779 28.1434C63.5332 27.4159 63.1761 26.7478 62.6516 26.2233C62.1272 25.6989 61.459 25.3417 60.7316 25.197C60.0042 25.0523 59.2502 25.1266 58.5649 25.4104C57.8797 25.6942 57.294 26.1749 56.882 26.7916C56.4699 27.4083 56.25 28.1333 56.25 28.875C56.25 29.8695 56.6451 30.8234 57.3483 31.5266C58.0516 32.2299 59.0054 32.625 60 32.625ZM53.4375 26.0625C53.4375 25.8138 53.3387 25.5754 53.1629 25.3996C52.9871 25.2237 52.7486 25.125 52.5 25.125C51.974 25.1249 51.4585 24.9774 51.0121 24.699C50.5658 24.4207 50.2064 24.0228 49.9749 23.5505C49.7433 23.0782 49.6489 22.5504 49.7023 22.0271C49.7556 21.5038 49.9547 21.0059 50.2768 20.5901C50.599 20.1742 51.0313 19.8571 51.5246 19.6746C52.018 19.4921 52.5526 19.4517 53.0678 19.5578C53.583 19.664 54.0581 19.9125 54.4392 20.2751C54.8202 20.6378 55.0919 21.1 55.2234 21.6093C55.2856 21.8502 55.4409 22.0565 55.6552 22.1829C55.8694 22.3093 56.1251 22.3453 56.366 22.2832C56.6069 22.221 56.8132 22.0657 56.9396 21.8514C57.0659 21.6372 57.102 21.3815 57.0398 21.1406C56.8573 20.4343 56.5125 19.7804 56.0327 19.2308C55.553 18.6813 54.9516 18.2513 54.2765 17.9751C53.6013 17.6988 52.871 17.584 52.1437 17.6396C51.4163 17.6953 50.712 17.92 50.0868 18.2958C49.4615 18.6715 48.9326 19.188 48.5421 19.8042C48.1516 20.4204 47.9103 21.1192 47.8374 21.845C47.7645 22.5708 47.862 23.3036 48.1222 23.9851C48.3823 24.6667 48.7979 25.278 49.3359 25.7707C48.0624 26.3231 46.9555 27.199 46.125 28.3113C45.9756 28.5102 45.9114 28.7603 45.9465 29.0065C45.9816 29.2528 46.113 29.475 46.3119 29.6244C46.5108 29.7737 46.7609 29.8379 47.0072 29.8029C47.2534 29.7678 47.4756 29.6364 47.625 29.4375C48.1901 28.6779 48.9256 28.0617 49.7723 27.6383C50.619 27.2149 51.5533 26.9963 52.5 27C52.7486 27 52.9871 26.9012 53.1629 26.7254C53.3387 26.5496 53.4375 26.3111 53.4375 26.0625Z" fill="#C3C5C8"/>
<path d="M15.12 60.096H20.896V61.472H15.12V60.096ZM15.28 66H13.68V54.8H21.584V56.192H15.28V66ZM23.536 66V57.52H25.008V59.824L24.864 59.248C25.0987 58.6613 25.4933 58.2133 26.048 57.904C26.6027 57.5947 27.2853 57.44 28.096 57.44V58.928C28.032 58.9173 27.968 58.912 27.904 58.912C27.8507 58.912 27.7973 58.912 27.744 58.912C26.9227 58.912 26.272 59.1573 25.792 59.648C25.312 60.1387 25.072 60.848 25.072 61.776V66H23.536ZM33.767 66.096C32.8603 66.096 32.0603 65.9093 31.367 65.536C30.6843 65.1627 30.151 64.6507 29.767 64C29.3937 63.3493 29.207 62.6027 29.207 61.76C29.207 60.9173 29.3883 60.1707 29.751 59.52C30.1243 58.8693 30.631 58.3627 31.271 58C31.9217 57.6267 32.6523 57.44 33.463 57.44C34.2843 57.44 35.0097 57.6213 35.639 57.984C36.2683 58.3467 36.759 58.8587 37.111 59.52C37.4737 60.1707 37.655 60.9333 37.655 61.808C37.655 61.872 37.6497 61.9467 37.639 62.032C37.639 62.1173 37.6337 62.1973 37.623 62.272H30.407V61.168H36.823L36.199 61.552C36.2097 61.008 36.0977 60.5227 35.863 60.096C35.6283 59.6693 35.303 59.3387 34.887 59.104C34.4817 58.8587 34.007 58.736 33.463 58.736C32.9297 58.736 32.455 58.8587 32.039 59.104C31.623 59.3387 31.2977 59.6747 31.063 60.112C30.8283 60.5387 30.711 61.0293 30.711 61.584V61.84C30.711 62.4053 30.839 62.912 31.095 63.36C31.3617 63.7973 31.7297 64.1387 32.199 64.384C32.6683 64.6293 33.207 64.752 33.815 64.752C34.3163 64.752 34.7697 64.6667 35.175 64.496C35.591 64.3253 35.9537 64.0693 36.263 63.728L37.111 64.72C36.727 65.168 36.247 65.5093 35.671 65.744C35.1057 65.9787 34.471 66.096 33.767 66.096ZM43.6439 66.096C42.7372 66.096 41.9372 65.9093 41.2439 65.536C40.5612 65.1627 40.0279 64.6507 39.6439 64C39.2705 63.3493 39.0839 62.6027 39.0839 61.76C39.0839 60.9173 39.2652 60.1707 39.6279 59.52C40.0012 58.8693 40.5079 58.3627 41.1479 58C41.7985 57.6267 42.5292 57.44 43.3399 57.44C44.1612 57.44 44.8865 57.6213 45.5159 57.984C46.1452 58.3467 46.6359 58.8587 46.9879 59.52C47.3505 60.1707 47.5319 60.9333 47.5319 61.808C47.5319 61.872 47.5265 61.9467 47.5159 62.032C47.5159 62.1173 47.5105 62.1973 47.4999 62.272H40.2839V61.168H46.6999L46.0759 61.552C46.0865 61.008 45.9745 60.5227 45.7399 60.096C45.5052 59.6693 45.1799 59.3387 44.7639 59.104C44.3585 58.8587 43.8839 58.736 43.3399 58.736C42.8065 58.736 42.3319 58.8587 41.9159 59.104C41.4999 59.3387 41.1745 59.6747 40.9399 60.112C40.7052 60.5387 40.5879 61.0293 40.5879 61.584V61.84C40.5879 62.4053 40.7159 62.912 40.9719 63.36C41.2385 63.7973 41.6065 64.1387 42.0759 64.384C42.5452 64.6293 43.0839 64.752 43.6919 64.752C44.1932 64.752 44.6465 64.6667 45.0519 64.496C45.4679 64.3253 45.8305 64.0693 46.1399 63.728L46.9879 64.72C46.6039 65.168 46.1239 65.5093 45.5479 65.744C44.9825 65.9787 44.3479 66.096 43.6439 66.096ZM49.7447 66V54.128H51.2807V66H49.7447ZM59.5575 66V64.208L59.4775 63.872V60.816C59.4775 60.1653 59.2855 59.664 58.9015 59.312C58.5282 58.9493 57.9628 58.768 57.2055 58.768C56.7042 58.768 56.2135 58.8533 55.7335 59.024C55.2535 59.184 54.8482 59.4027 54.5175 59.68L53.8775 58.528C54.3148 58.176 54.8375 57.9093 55.4455 57.728C56.0642 57.536 56.7095 57.44 57.3815 57.44C58.5442 57.44 59.4402 57.7227 60.0695 58.288C60.6988 58.8533 61.0135 59.7173 61.0135 60.88V66H59.5575ZM56.7735 66.096C56.1442 66.096 55.5895 65.9893 55.1095 65.776C54.6402 65.5627 54.2775 65.2693 54.0215 64.896C53.7655 64.512 53.6375 64.08 53.6375 63.6C53.6375 63.1413 53.7442 62.7253 53.9575 62.352C54.1815 61.9787 54.5388 61.68 55.0295 61.456C55.5308 61.232 56.2028 61.12 57.0455 61.12H59.7335V62.224H57.1095C56.3415 62.224 55.8242 62.352 55.5575 62.608C55.2908 62.864 55.1575 63.1733 55.1575 63.536C55.1575 63.952 55.3228 64.288 55.6535 64.544C55.9842 64.7893 56.4428 64.912 57.0295 64.912C57.6055 64.912 58.1068 64.784 58.5335 64.528C58.9708 64.272 59.2855 63.8987 59.4775 63.408L59.7815 64.464C59.5788 64.9653 59.2215 65.3653 58.7095 65.664C58.1975 65.952 57.5522 66.096 56.7735 66.096ZM68.464 57.44C69.1573 57.44 69.7653 57.5733 70.288 57.84C70.8213 58.1067 71.2373 58.512 71.536 59.056C71.8347 59.6 71.984 60.288 71.984 61.12V66H70.448V61.296C70.448 60.4747 70.2453 59.856 69.84 59.44C69.4453 59.024 68.8853 58.816 68.16 58.816C67.616 58.816 67.1413 58.9227 66.736 59.136C66.3307 59.3493 66.016 59.664 65.792 60.08C65.5787 60.496 65.472 61.0133 65.472 61.632V66H63.936V57.52H65.408V59.808L65.168 59.2C65.4453 58.6453 65.872 58.2133 66.448 57.904C67.024 57.5947 67.696 57.44 68.464 57.44ZM78.6026 66.096C77.7386 66.096 76.9653 65.9093 76.2826 65.536C75.6106 65.1627 75.0826 64.6507 74.6986 64C74.3146 63.3493 74.1226 62.6027 74.1226 61.76C74.1226 60.9173 74.3146 60.1707 74.6986 59.52C75.0826 58.8693 75.6106 58.3627 76.2826 58C76.9653 57.6267 77.7386 57.44 78.6026 57.44C79.3706 57.44 80.0533 57.5947 80.6506 57.904C81.2586 58.2027 81.728 58.6507 82.0586 59.248L80.8906 60C80.6133 59.584 80.272 59.28 79.8666 59.088C79.472 58.8853 79.0453 58.784 78.5866 58.784C78.032 58.784 77.536 58.9067 77.0986 59.152C76.6613 59.3973 76.3146 59.744 76.0586 60.192C75.8026 60.6293 75.6746 61.152 75.6746 61.76C75.6746 62.368 75.8026 62.896 76.0586 63.344C76.3146 63.792 76.6613 64.1387 77.0986 64.384C77.536 64.6293 78.032 64.752 78.5866 64.752C79.0453 64.752 79.472 64.656 79.8666 64.464C80.272 64.2613 80.6133 63.952 80.8906 63.536L82.0586 64.272C81.728 64.8587 81.2586 65.312 80.6506 65.632C80.0533 65.9413 79.3706 66.096 78.6026 66.096ZM87.7782 66.096C86.8716 66.096 86.0716 65.9093 85.3782 65.536C84.6956 65.1627 84.1622 64.6507 83.7782 64C83.4049 63.3493 83.2182 62.6027 83.2182 61.76C83.2182 60.9173 83.3996 60.1707 83.7622 59.52C84.1356 58.8693 84.6422 58.3627 85.2822 58C85.9329 57.6267 86.6636 57.44 87.4742 57.44C88.2956 57.44 89.0209 57.6213 89.6502 57.984C90.2796 58.3467 90.7702 58.8587 91.1222 59.52C91.4849 60.1707 91.6663 60.9333 91.6663 61.808C91.6663 61.872 91.6609 61.9467 91.6502 62.032C91.6502 62.1173 91.6449 62.1973 91.6342 62.272H84.4182V61.168H90.8342L90.2102 61.552C90.2209 61.008 90.1089 60.5227 89.8742 60.096C89.6396 59.6693 89.3142 59.3387 88.8982 59.104C88.4929 58.8587 88.0182 58.736 87.4742 58.736C86.9409 58.736 86.4662 58.8587 86.0502 59.104C85.6342 59.3387 85.3089 59.6747 85.0742 60.112C84.8396 60.5387 84.7222 61.0293 84.7222 61.584V61.84C84.7222 62.4053 84.8502 62.912 85.1062 63.36C85.3729 63.7973 85.7409 64.1387 86.2102 64.384C86.6796 64.6293 87.2182 64.752 87.8262 64.752C88.3276 64.752 88.7809 64.6667 89.1862 64.496C89.6022 64.3253 89.9649 64.0693 90.2742 63.728L91.1222 64.72C90.7382 65.168 90.2582 65.5093 89.6822 65.744C89.1169 65.9787 88.4822 66.096 87.7782 66.096ZM93.8791 66V57.52H95.3511V59.824L95.2071 59.248C95.4418 58.6613 95.8365 58.2133 96.3911 57.904C96.9458 57.5947 97.6285 57.44 98.4391 57.44V58.928C98.3751 58.9173 98.3111 58.912 98.2471 58.912C98.1938 58.912 98.1405 58.912 98.0871 58.912C97.2658 58.912 96.6151 59.1573 96.1351 59.648C95.6551 60.1387 95.4151 60.848 95.4151 61.776V66H93.8791ZM102.938 66.096C102.234 66.096 101.562 66 100.922 65.808C100.293 65.616 99.7967 65.3813 99.434 65.104L100.074 63.888C100.437 64.1333 100.885 64.3413 101.418 64.512C101.951 64.6827 102.495 64.768 103.05 64.768C103.765 64.768 104.277 64.6667 104.586 64.464C104.906 64.2613 105.066 63.9787 105.066 63.616C105.066 63.3493 104.97 63.1413 104.778 62.992C104.586 62.8427 104.33 62.7307 104.01 62.656C103.701 62.5813 103.354 62.5173 102.97 62.464C102.586 62.4 102.202 62.3253 101.818 62.24C101.434 62.144 101.082 62.016 100.762 61.856C100.442 61.6853 100.186 61.456 99.994 61.168C99.802 60.8693 99.706 60.4747 99.706 59.984C99.706 59.472 99.85 59.024 100.138 58.64C100.426 58.256 100.831 57.9627 101.354 57.76C101.887 57.5467 102.517 57.44 103.242 57.44C103.797 57.44 104.357 57.5093 104.922 57.648C105.498 57.776 105.967 57.9627 106.33 58.208L105.674 59.424C105.29 59.168 104.89 58.992 104.474 58.896C104.058 58.8 103.642 58.752 103.226 58.752C102.554 58.752 102.053 58.864 101.722 59.088C101.391 59.3013 101.226 59.5787 101.226 59.92C101.226 60.208 101.322 60.432 101.514 60.592C101.717 60.7413 101.973 60.8587 102.282 60.944C102.602 61.0293 102.954 61.104 103.338 61.168C103.722 61.2213 104.106 61.296 104.49 61.392C104.874 61.4773 105.221 61.6 105.53 61.76C105.85 61.92 106.106 62.144 106.298 62.432C106.501 62.72 106.602 63.104 106.602 63.584C106.602 64.096 106.453 64.5387 106.154 64.912C105.855 65.2853 105.434 65.5787 104.89 65.792C104.346 65.9947 103.695 66.096 102.938 66.096Z" fill="#C3C5C8"/>
</svg>
